<svg width="560" height="316" viewBox="0 0 560 316" fill="none" xmlns="http://www.w3.org/2000/svg">
<g clip-path="url(#clip0_101_957)">
<path d="M306.162 125.409C302.097 123.33 297.409 122.286 292.079 122.286C286.75 122.286 282.201 123.395 278.202 125.614C274.211 127.833 271.099 130.98 268.882 135.04C266.665 139.107 265.557 143.874 265.557 149.338C265.557 154.803 266.698 159.463 268.989 163.53C271.272 167.598 274.548 170.721 278.818 172.907C283.08 175.092 288.154 176.185 294.026 176.185C298.534 176.185 302.524 175.38 306.006 173.778C309.488 172.175 312.288 169.973 314.406 167.171C316.525 164.368 317.855 161.229 318.397 157.745H304.167C303.551 160.202 302.27 162.067 300.324 163.333C298.378 164.599 295.939 165.231 292.999 165.231C289.312 165.231 286.414 164.138 284.295 161.952C282.176 159.767 280.953 156.759 280.608 152.938V152.527H318.799C319.07 151.089 319.21 149.453 319.21 147.604C319.144 142.485 317.962 138.023 315.679 134.234C313.388 130.446 310.218 127.504 306.154 125.425L306.162 125.409ZM280.92 143.085C281.331 140.011 282.612 137.571 284.763 135.755C286.914 133.947 289.559 133.043 292.695 133.043C295.832 133.043 298.681 133.914 300.833 135.656C302.984 137.398 304.298 139.872 304.774 143.085H280.92Z" fill="#0657F9"/>
<path d="M251.038 122.894L238.549 160.704L225.747 122.894H210.392L230.666 175.873L229.336 179.358C228.58 181.133 227.8 182.332 226.979 182.94C226.158 183.557 224.828 183.861 222.988 183.861H214.999V196.056H229.024C231.684 196.056 233.852 195.596 235.527 194.675C237.202 193.755 238.582 192.382 239.674 190.575C240.766 188.767 241.924 186.252 243.156 183.047L266.5 122.894H251.038Z" fill="#0657F9"/>
<path d="M366.384 127.151C362.319 123.905 356.571 122.286 349.132 122.286C341.692 122.286 336.33 123.774 332.036 126.74C327.733 129.715 325.343 133.898 324.867 139.289H338.794C339.138 137.308 340.173 135.738 341.914 134.572C343.655 133.413 345.888 132.829 348.623 132.829C351.554 132.829 353.894 133.512 355.635 134.876C357.376 136.24 358.246 138.122 358.246 140.513V143.175H347.908C339.992 143.175 333.965 144.679 329.835 147.687C325.705 150.695 323.644 155.001 323.644 160.597C323.644 165.519 325.368 169.34 328.817 172.077C332.265 174.813 336.889 176.177 342.694 176.177C346.241 176.177 349.296 175.561 351.858 174.337C354.42 173.104 356.686 171.296 358.665 168.905L359.79 175.569H372.485V141.343C372.485 135.13 370.457 130.397 366.392 127.151H366.384ZM358.246 153.842C358.181 157.466 357.047 160.35 354.871 162.503C352.687 164.656 349.715 165.733 345.962 165.733C343.573 165.733 341.676 165.19 340.28 164.089C338.884 162.996 338.178 161.525 338.178 159.685C338.178 157.499 339.015 155.806 340.69 154.614C342.365 153.423 344.698 152.823 347.703 152.823H358.246V153.85V153.842Z" fill="#0657F9"/>
<path d="M463.492 128.022C459.534 124.201 454.484 122.286 448.342 122.286C444.515 122.286 441.313 122.919 438.718 124.185C436.123 125.45 433.906 127.209 432.067 129.46L430.736 122.903H418.14V175.569H432.576V148.624C432.576 144.047 433.602 140.496 435.647 137.965C437.691 135.443 440.598 134.177 444.351 134.177C451.446 134.177 455.001 138.721 455.001 147.802V175.569H469.437V146.98C469.437 138.171 467.458 131.852 463.5 128.022H463.492Z" fill="#0657F9"/>
<path d="M401.808 124.891C399.484 126.223 397.538 128.187 395.97 130.783L394.64 122.894H381.534V175.561H395.97V149.741C395.97 145.509 396.922 142.156 398.836 139.699C400.749 137.242 403.754 136.01 407.843 136.01H413.575V122.894H411.12C407.228 122.894 404.124 123.56 401.8 124.891H401.808Z" fill="#0657F9"/>
<path d="M156.714 159.159C157.445 161.591 157.823 164.155 157.823 166.768C157.823 173.794 155.089 180.401 150.129 185.365C145.169 190.328 138.567 193.065 131.547 193.065C124.526 193.065 117.932 190.328 112.964 185.365C108.005 180.401 105.27 173.794 105.27 166.768C105.27 164.155 105.648 161.599 106.379 159.159L93.0598 145.83C89.6767 152.05 87.7471 159.183 87.7471 166.768C87.7471 190.977 107.356 210.601 131.547 210.601C155.737 210.601 175.346 190.977 175.346 166.768C175.346 159.183 173.425 152.05 170.033 145.83L156.714 159.159Z" fill="#0657F9"/>
<path d="M122.785 175.536H140.3V147.638L170.124 117.783L157.733 105.383L131.555 131.597L105.352 105.374L92.9614 117.775L122.785 147.621V175.536Z" fill="#0657F9"/>
<path d="M170.033 40.6443L156.714 53.9733C157.445 56.4057 157.823 58.9696 157.823 61.5828C157.823 68.6088 155.089 75.2158 150.129 80.1792C145.169 85.1427 138.567 87.8791 131.547 87.8791C124.526 87.8791 117.924 85.1427 112.964 80.1792C108.005 75.2158 105.27 68.6088 105.27 61.5828C105.27 58.9696 105.648 56.4057 106.379 53.9733L93.0598 40.6443C89.6767 46.865 87.7471 53.9979 87.7471 61.5828C87.7471 85.7919 107.356 105.416 131.547 105.416C155.737 105.416 175.346 85.7919 175.346 61.5828C175.346 53.9979 173.425 46.865 170.033 40.6443Z" fill="#EBEBEB"/>
<path d="M122.785 70.351H140.3V42.4522L170.124 12.5976L157.733 0.197228L131.555 26.4114L105.352 0.189011L92.9614 12.5894L122.785 42.4357V70.351Z" fill="#EBEBEB"/>
<path d="M170.033 251.015L156.714 264.344C157.445 266.777 157.823 269.34 157.823 271.954C157.823 278.98 155.089 285.587 150.129 290.55C145.169 295.514 138.567 298.25 131.547 298.25C124.526 298.25 117.924 295.514 112.964 290.55C108.005 285.587 105.27 278.98 105.27 271.954C105.27 269.34 105.648 266.777 106.379 264.344L93.0598 251.015C89.6767 257.236 87.7471 264.369 87.7471 271.954C87.7471 296.163 107.356 315.786 131.547 315.786C155.737 315.786 175.346 296.163 175.346 271.954C175.346 264.369 173.425 257.236 170.033 251.015Z" fill="#EBEBEB"/>
<path d="M122.785 280.722H140.3V252.823L170.124 222.968L157.733 210.568L131.555 236.782L105.352 210.56L92.9614 222.96L122.785 252.807V280.722Z" fill="#EBEBEB"/>
<path d="M82.2863 145.83L68.9674 159.159C69.6982 161.591 70.076 164.155 70.076 166.768C70.076 173.794 67.3416 180.401 62.3819 185.365C57.4222 190.328 50.8203 193.065 43.7995 193.065C36.7788 193.065 30.1768 190.328 25.2172 185.365C20.2575 180.401 17.5231 173.794 17.5231 166.768C17.5231 164.155 17.9008 161.591 18.6316 159.159L5.31277 145.83C1.92968 152.05 0 159.183 0 166.768C0 190.977 19.6088 210.601 43.7995 210.601C67.9903 210.601 87.5991 190.977 87.5991 166.768C87.5991 159.183 85.6776 152.05 82.2863 145.83Z" fill="#EBEBEB"/>
<path d="M35.0381 175.536H52.5612V147.638L82.3849 117.783L69.994 105.383L43.8079 131.597L17.6053 105.374L5.21436 117.775L35.0381 147.621V175.536Z" fill="#EBEBEB"/>
<path d="M554.687 145.83L541.368 159.159C542.099 161.591 542.477 164.155 542.477 166.768C542.477 173.794 539.742 180.401 534.783 185.365C529.823 190.328 523.221 193.065 516.2 193.065C509.18 193.065 502.578 190.328 497.618 185.365C492.658 180.401 489.924 173.794 489.924 166.768C489.924 164.155 490.302 161.591 491.033 159.159L477.714 145.83C474.331 152.05 472.401 159.183 472.401 166.768C472.401 190.977 492.01 210.601 516.2 210.601C540.391 210.601 560 190.977 560 166.768C560 159.183 558.078 152.05 554.687 145.83Z" fill="#EBEBEB"/>
<path d="M507.439 175.536H524.954V147.638L554.778 117.783L542.387 105.383L516.209 131.597L490.006 105.374L477.615 117.775L507.439 147.621V175.536Z" fill="#EBEBEB"/>
<path d="M175.338 315.795V0.205444" stroke="#9D9D9D" stroke-width="0.5" stroke-miterlimit="10"/>
<path d="M192.812 315.795V0.205444" stroke="#9D9D9D" stroke-width="0.5" stroke-miterlimit="10"/>
<path d="M210.286 315.795V0.205444" stroke="#9D9D9D" stroke-width="0.5" stroke-miterlimit="10"/>
<path d="M227.768 315.795V0.205444" stroke="#9D9D9D" stroke-width="0.5" stroke-miterlimit="10"/>
<path d="M245.241 315.795V0.205444" stroke="#9D9D9D" stroke-width="0.5" stroke-miterlimit="10"/>
<path d="M262.715 315.795V0.205444" stroke="#9D9D9D" stroke-width="0.5" stroke-miterlimit="10"/>
<path d="M280.189 315.795V0.205444" stroke="#9D9D9D" stroke-width="0.5" stroke-miterlimit="10"/>
<path d="M297.663 315.795V0.205444" stroke="#9D9D9D" stroke-width="0.5" stroke-miterlimit="10"/>
<path d="M315.137 315.795V0.205444" stroke="#9D9D9D" stroke-width="0.5" stroke-miterlimit="10"/>
<path d="M332.61 315.795V0.205444" stroke="#9D9D9D" stroke-width="0.5" stroke-miterlimit="10"/>
<path d="M350.092 315.795V0.205444" stroke="#9D9D9D" stroke-width="0.5" stroke-miterlimit="10"/>
<path d="M367.566 315.795V0.205444" stroke="#9D9D9D" stroke-width="0.5" stroke-miterlimit="10"/>
<path d="M385.04 315.795V0.205444" stroke="#9D9D9D" stroke-width="0.5" stroke-miterlimit="10"/>
<path d="M402.514 315.795V0.205444" stroke="#9D9D9D" stroke-width="0.5" stroke-miterlimit="10"/>
<path d="M419.988 315.795V0.205444" stroke="#9D9D9D" stroke-width="0.5" stroke-miterlimit="10"/>
<path d="M437.461 315.795V0.205444" stroke="#9D9D9D" stroke-width="0.5" stroke-miterlimit="10"/>
<path d="M454.943 315.795V0.205444" stroke="#9D9D9D" stroke-width="0.5" stroke-miterlimit="10"/>
<path d="M472.417 315.795V0.205444" stroke="#9D9D9D" stroke-width="0.5" stroke-miterlimit="10"/>
<path d="M489.891 315.795V0.205444" stroke="#9D9D9D" stroke-width="0.5" stroke-miterlimit="10"/>
<path d="M507.365 315.795V0.205444" stroke="#9D9D9D" stroke-width="0.5" stroke-miterlimit="10"/>
<path d="M524.839 315.795V0.205444" stroke="#9D9D9D" stroke-width="0.5" stroke-miterlimit="10"/>
<path d="M542.312 315.795V0.205444" stroke="#9D9D9D" stroke-width="0.5" stroke-miterlimit="10"/>
<path d="M559.795 315.795V0.205444" stroke="#9D9D9D" stroke-width="0.5" stroke-miterlimit="10"/>
<path d="M0.320312 315.795V0.205444" stroke="#9D9D9D" stroke-width="0.5" stroke-miterlimit="10"/>
<path d="M17.8022 315.795V0.205444" stroke="#9D9D9D" stroke-width="0.5" stroke-miterlimit="10"/>
<path d="M35.2764 315.795V0.205444" stroke="#9D9D9D" stroke-width="0.5" stroke-miterlimit="10"/>
<path d="M52.75 315.795V0.205444" stroke="#9D9D9D" stroke-width="0.5" stroke-miterlimit="10"/>
<path d="M70.2236 315.795V0.205444" stroke="#9D9D9D" stroke-width="0.5" stroke-miterlimit="10"/>
<path d="M157.814 315.795V0.205444" stroke="#9D9D9D" stroke-width="0.5" stroke-miterlimit="10"/>
<path d="M140.3 315.795V0.205444" stroke="#9D9D9D" stroke-width="0.5" stroke-miterlimit="10"/>
<path d="M122.777 315.795V0.205444" stroke="#9D9D9D" stroke-width="0.5" stroke-miterlimit="10"/>
<path d="M105.262 315.795V0.205444" stroke="#9D9D9D" stroke-width="0.5" stroke-miterlimit="10"/>
<path d="M87.7388 315.795V0.205444" stroke="#9D9D9D" stroke-width="0.5" stroke-miterlimit="10"/>
<path d="M0.320312 193.065H559.795" stroke="#9D9D9D" stroke-width="0.5" stroke-miterlimit="10"/>
<path d="M0.320312 175.536H559.795" stroke="#9D9D9D" stroke-width="0.5" stroke-miterlimit="10"/>
<path d="M0.320312 210.601H559.795" stroke="#9D9D9D" stroke-width="0.5" stroke-miterlimit="10"/>
<path d="M0.320312 228.129H559.795" stroke="#9D9D9D" stroke-width="0.5" stroke-miterlimit="10"/>
<path d="M0.320312 158H559.795" stroke="#9D9D9D" stroke-width="0.5" stroke-miterlimit="10"/>
<path d="M0.320312 140.472H559.795" stroke="#9D9D9D" stroke-width="0.5" stroke-miterlimit="10"/>
<path d="M0.320312 122.935H559.795" stroke="#9D9D9D" stroke-width="0.5" stroke-miterlimit="10"/>
<path d="M0.320312 105.399H559.795" stroke="#9D9D9D" stroke-width="0.5" stroke-miterlimit="10"/>
<path d="M0.320312 52.8064H559.795" stroke="#9D9D9D" stroke-width="0.5" stroke-miterlimit="10"/>
<path d="M0.320312 35.27H559.795" stroke="#9D9D9D" stroke-width="0.5" stroke-miterlimit="10"/>
<path d="M0.320312 70.3345H559.795" stroke="#9D9D9D" stroke-width="0.5" stroke-miterlimit="10"/>
<path d="M0.320312 87.8709H559.795" stroke="#9D9D9D" stroke-width="0.5" stroke-miterlimit="10"/>
<path d="M0.320312 17.7418H559.795" stroke="#9D9D9D" stroke-width="0.5" stroke-miterlimit="10"/>
<path d="M0.320312 0.205444H559.795" stroke="#9D9D9D" stroke-width="0.5" stroke-miterlimit="10"/>
<path d="M0.320312 315.795H559.795" stroke="#9D9D9D" stroke-width="0.5" stroke-miterlimit="10"/>
<path d="M0.320312 298.266H559.795" stroke="#9D9D9D" stroke-width="0.5" stroke-miterlimit="10"/>
<path d="M0.320312 280.73H559.795" stroke="#9D9D9D" stroke-width="0.5" stroke-miterlimit="10"/>
<path d="M0.320312 263.202H559.795" stroke="#9D9D9D" stroke-width="0.5" stroke-miterlimit="10"/>
<path d="M0.320312 245.665H559.795" stroke="#9D9D9D" stroke-width="0.5" stroke-miterlimit="10"/>
<path d="M559.786 210.921V228.162H472.409V210.79" fill="white"/>
<path d="M559.786 210.921V228.162H472.409V210.79" stroke="#0C0C0C" stroke-width="0.5" stroke-miterlimit="10"/>
</g>
<defs>
<clipPath id="clip0_101_957">
<rect width="560" height="316" fill="white"/>
</clipPath>
</defs>
</svg>
