<svg width="560" height="316" viewBox="0 0 560 316" fill="none" xmlns="http://www.w3.org/2000/svg">
<g clip-path="url(#clip0_101_1033)">
<path d="M306.114 125.409C302.048 123.33 297.358 122.286 292.028 122.286C286.698 122.286 282.148 123.396 278.148 125.614C274.156 127.833 271.043 130.981 268.826 135.04C266.608 139.108 265.5 143.874 265.5 149.339C265.5 154.803 266.641 159.463 268.933 163.53C271.216 167.598 274.493 170.721 278.764 172.907C283.026 175.093 288.102 176.186 293.975 176.186C298.484 176.186 302.475 175.38 305.958 173.778C309.44 172.175 312.241 169.973 314.36 167.171C316.479 164.369 317.809 161.23 318.351 157.745H304.118C303.502 160.202 302.221 162.068 300.274 163.333C298.328 164.599 295.888 165.232 292.948 165.232C289.26 165.232 286.361 164.139 284.242 161.953C282.123 159.767 280.899 156.759 280.554 152.938V152.527H318.754C319.025 151.089 319.164 149.454 319.164 147.605C319.099 142.485 317.916 138.023 315.633 134.235C313.341 130.446 310.171 127.504 306.106 125.425L306.114 125.409ZM280.866 143.085C281.277 140.012 282.558 137.571 284.71 135.755C286.862 133.947 289.507 133.043 292.644 133.043C295.782 133.043 298.632 133.914 300.783 135.656C302.935 137.398 304.249 139.872 304.726 143.085H280.866Z" fill="#0657F9"/>
<path d="M250.971 122.894L238.478 160.704L225.674 122.894H210.315L230.594 175.873L229.263 179.358C228.508 181.133 227.727 182.332 226.906 182.94C226.085 183.557 224.754 183.861 222.914 183.861H214.923V196.056H228.951C231.612 196.056 233.781 195.596 235.456 194.675C237.131 193.755 238.511 192.382 239.604 190.575C240.696 188.767 241.854 186.252 243.086 183.047L266.436 122.894H250.971Z" fill="#0657F9"/>
<path d="M366.349 127.151C362.284 123.905 356.535 122.286 349.093 122.286C341.652 122.286 336.289 123.774 331.993 126.74C327.69 129.715 325.3 133.898 324.823 139.289H338.753C339.098 137.308 340.133 135.738 341.874 134.572C343.615 133.413 345.849 132.829 348.584 132.829C351.516 132.829 353.857 133.512 355.598 134.876C357.339 136.24 358.21 138.122 358.21 140.513V143.175H347.87C339.952 143.175 333.924 144.679 329.792 147.687C325.661 150.695 323.6 155.001 323.6 160.597C323.6 165.519 325.324 169.34 328.774 172.077C332.223 174.813 336.847 176.177 342.654 176.177C346.202 176.177 349.258 175.561 351.82 174.337C354.383 173.104 356.649 171.296 358.629 168.905L359.754 175.569H372.452V141.343C372.452 135.13 370.423 130.397 366.357 127.151H366.349ZM358.21 153.842C358.144 157.466 357.011 160.35 354.834 162.503C352.65 164.656 349.676 165.733 345.923 165.733C343.533 165.733 341.636 165.19 340.24 164.089C338.843 162.996 338.137 161.525 338.137 159.685C338.137 157.499 338.975 155.806 340.65 154.614C342.326 153.423 344.658 152.823 347.664 152.823H358.21V153.85V153.842Z" fill="#0657F9"/>
<path d="M463.479 128.022C459.52 124.201 454.469 122.286 448.325 122.286C444.498 122.286 441.295 122.919 438.699 124.185C436.104 125.45 433.887 127.209 432.047 129.46L430.716 122.903H418.117V175.569H432.556V148.624C432.556 144.047 433.583 140.496 435.628 137.965C437.673 135.443 440.58 134.177 444.334 134.177C451.43 134.177 454.986 138.721 454.986 147.802V175.569H469.425V146.98C469.425 138.171 467.446 131.852 463.487 128.022H463.479Z" fill="#0657F9"/>
<path d="M401.773 124.891C399.449 126.223 397.502 128.187 395.933 130.783L394.603 122.894H381.495V175.561H395.933V149.741C395.933 145.509 396.886 142.156 398.8 139.699C400.714 137.242 403.72 136.01 407.81 136.01H413.543V122.894H411.087C407.194 122.894 404.089 123.56 401.765 124.891H401.773Z" fill="#0657F9"/>
<path d="M156.626 159.159C157.357 161.591 157.734 164.155 157.734 166.768C157.734 173.794 154.999 180.401 150.039 185.365C145.078 190.328 138.475 193.065 131.452 193.065C124.43 193.065 117.835 190.328 112.866 185.365C107.905 180.401 105.17 173.794 105.17 166.768C105.17 164.155 105.548 161.599 106.279 159.159L92.957 145.83C89.5732 152.05 87.6431 159.183 87.6431 166.768C87.6431 190.977 107.256 210.601 131.452 210.601C155.648 210.601 175.261 190.977 175.261 166.768C175.261 159.183 173.339 152.05 169.947 145.83L156.626 159.159Z" fill="#0657F9"/>
<path d="M122.689 175.536H140.216V147.638L170.046 117.783L157.652 105.383L131.46 131.597L105.252 105.374L92.8667 117.775L122.689 147.621V175.536Z" fill="#0657F9"/>
<path d="M175.262 315.795V0.205444M192.739 315.795V0.205444M210.217 315.795V0.205444M227.695 315.795V0.205444M245.172 315.795V0.205444M262.65 315.795V0.205444M280.136 315.795V0.205444M297.613 315.795V0.205444M315.091 315.795V0.205444M332.569 315.795V0.205444M350.046 315.795V0.205444M367.524 315.795V0.205444M385.002 315.795V0.205444M402.488 315.795V0.205444M419.965 315.795V0.205444M437.443 315.795V0.205444M454.921 315.795V0.205444M472.398 315.795V0.205444M489.876 315.795V0.205444M507.362 315.795V0.205444M524.84 315.795V0.205444M542.317 315.795V0.205444M17.6832 315.795V0.205444M35.1609 315.795V0.205444M52.6386 315.795V0.205444M70.1245 315.795V0.205444M157.735 315.795V0.205444M140.208 315.795V0.205444M122.689 315.795V0.205444M105.162 315.795V0.205444M87.6432 315.795V0.205444M0.205566 193.065H559.795M0.205566 175.536H559.795M0.205566 210.601H559.795M0.205566 228.129H559.795M0.205566 158H559.795M0.205566 140.472H559.795M0.205566 122.935H559.795M0.205566 105.399H559.795M0.205566 52.8064H559.795M0.205566 35.27H559.795M0.205566 70.3345H559.795M0.205566 87.8709H559.795M0.205566 17.7418H559.795M0.205566 298.266H559.795M0.205566 280.73H559.795M0.205566 263.202H559.795M0.205566 245.665H559.795M559.795 315.795V0.205444L0.205566 0.205444V315.795H559.795Z" stroke="#9D9D9D" stroke-width="0.5" stroke-miterlimit="10"/>
<path d="M472.804 210.782V228.146H88V210.642" fill="white"/>
<path d="M472.804 210.782V228.146H88V210.642" stroke="#0C0C0C" stroke-width="0.5" stroke-miterlimit="10"/>
<path d="M272.072 219.782C272.567 219.877 272.974 220.09 273.292 220.421C273.61 220.752 273.769 221.182 273.769 221.711C273.769 222.13 273.654 222.505 273.425 222.836C273.196 223.159 272.863 223.413 272.427 223.596C271.998 223.773 271.484 223.861 270.885 223.861C270.285 223.861 269.768 223.773 269.331 223.596C268.902 223.413 268.573 223.159 268.344 222.836C268.115 222.505 268 222.13 268 221.711C268 221.189 268.155 220.763 268.466 220.432C268.777 220.101 269.176 219.885 269.664 219.782C269.25 219.686 268.906 219.488 268.632 219.186C268.359 218.878 268.222 218.499 268.222 218.051C268.222 217.646 268.329 217.29 268.544 216.981C268.758 216.673 269.065 216.434 269.464 216.265C269.871 216.088 270.345 216 270.885 216C271.424 216 271.894 216.088 272.294 216.265C272.7 216.434 273.011 216.673 273.225 216.981C273.44 217.29 273.547 217.646 273.547 218.051C273.547 218.484 273.407 218.859 273.126 219.175C272.845 219.491 272.493 219.693 272.072 219.782ZM270.885 216.926C270.456 216.926 270.104 217.036 269.831 217.257C269.557 217.47 269.42 217.746 269.42 218.084C269.42 218.429 269.557 218.709 269.831 218.922C270.104 219.135 270.456 219.241 270.885 219.241C271.314 219.241 271.661 219.135 271.927 218.922C272.201 218.701 272.338 218.422 272.338 218.084C272.338 217.746 272.201 217.47 271.927 217.257C271.661 217.036 271.314 216.926 270.885 216.926ZM270.885 222.946C271.365 222.946 271.761 222.825 272.072 222.582C272.382 222.34 272.538 222.027 272.538 221.645C272.538 221.27 272.379 220.958 272.061 220.708C271.75 220.451 271.358 220.322 270.885 220.322C270.404 220.322 270.004 220.451 269.686 220.708C269.376 220.958 269.22 221.27 269.22 221.645C269.22 222.027 269.376 222.34 269.686 222.582C270.004 222.825 270.404 222.946 270.885 222.946Z" fill="#0C0C0C"/>
<path d="M277.847 218.591C278.335 218.591 278.771 218.701 279.156 218.922C279.548 219.142 279.855 219.451 280.077 219.848C280.299 220.245 280.41 220.697 280.41 221.204C280.41 221.763 280.284 222.24 280.032 222.637C279.781 223.034 279.441 223.336 279.012 223.541C278.583 223.747 278.109 223.85 277.592 223.85C277.022 223.85 276.523 223.74 276.094 223.519C275.672 223.299 275.343 223.001 275.106 222.626C274.87 222.244 274.737 221.821 274.707 221.358H275.927C275.972 221.777 276.146 222.126 276.449 222.406C276.752 222.685 277.133 222.825 277.592 222.825C277.865 222.825 278.12 222.762 278.357 222.637C278.601 222.512 278.797 222.329 278.945 222.086C279.093 221.843 279.167 221.549 279.167 221.204C279.167 220.734 279.023 220.348 278.734 220.046C278.453 219.745 278.076 219.594 277.603 219.594C277.292 219.594 276.985 219.664 276.682 219.804C276.379 219.943 276.164 220.19 276.038 220.542L274.851 220.52L275.084 216.077H279.921V217.147H276.216L276.072 219.297C276.293 219.054 276.56 218.878 276.87 218.767C277.181 218.65 277.506 218.591 277.847 218.591Z" fill="#0C0C0C"/>
<path d="M284.412 218.084C284.93 218.084 285.392 218.201 285.799 218.437C286.206 218.664 286.524 218.999 286.753 219.44C286.983 219.874 287.097 220.384 287.097 220.972C287.097 221.546 286.983 222.053 286.753 222.494C286.524 222.928 286.206 223.266 285.799 223.508C285.392 223.743 284.93 223.861 284.412 223.861C283.991 223.861 283.625 223.784 283.314 223.63C283.003 223.475 282.756 223.266 282.571 223.001V226H281.372V218.15H282.415L282.56 218.988C283.018 218.385 283.636 218.084 284.412 218.084ZM284.213 222.858C284.708 222.858 285.108 222.681 285.411 222.329C285.721 221.976 285.877 221.524 285.877 220.972C285.877 220.414 285.721 219.962 285.411 219.616C285.108 219.271 284.708 219.098 284.213 219.098C283.717 219.098 283.318 219.271 283.014 219.616C282.711 219.954 282.56 220.399 282.56 220.95C282.56 221.516 282.711 221.976 283.014 222.329C283.318 222.681 283.717 222.858 284.213 222.858Z" fill="#0C0C0C"/>
<path d="M289.428 220.906L287.42 218.15H288.817L290.182 220.057L291.569 218.15H292.878L290.859 220.906L293 223.795H291.602L290.104 221.744L288.596 223.795H287.297L289.428 220.906Z" fill="#0C0C0C"/>
</g>
<defs>
<clipPath id="clip0_101_1033">
<rect width="560" height="316" fill="white"/>
</clipPath>
</defs>
</svg>
