<svg width="560" height="315" viewBox="0 0 560 315" fill="none" xmlns="http://www.w3.org/2000/svg">
<rect x="0.5" y="0.5" width="559" height="314" stroke="#E1E1E1"/>
<path d="M317.724 145.981L304.495 159.157C305.221 161.564 305.6 164.093 305.6 166.677C305.6 173.619 302.885 180.148 297.955 185.057C293.025 189.967 286.47 192.671 279.5 192.671C272.53 192.671 265.975 189.967 261.045 185.057C256.115 180.148 253.4 173.619 253.4 166.677C253.4 164.093 253.776 161.564 254.503 159.157L241.276 145.981C237.912 152.13 236 159.181 236 166.677C236 190.604 255.475 210 279.5 210C303.525 210 323 190.604 323 166.677C323 159.183 321.088 152.13 317.724 145.981Z" fill="#0C0C0C"/>
<path d="M270.8 175.342H288.2V147.769L317.82 118.259L305.515 106.007L279.509 131.916L253.485 106L241.182 118.252L270.8 147.752V175.342Z" fill="#0C0C0C"/>
</svg>
