<svg width="560" height="315" viewBox="0 0 560 315" fill="none" xmlns="http://www.w3.org/2000/svg">
<rect x="0.5" y="0.5" width="559" height="314" stroke="#E1E1E1"/>
<path d="M309.724 145.981L296.495 159.157C297.221 161.564 297.6 164.093 297.6 166.677C297.6 173.619 294.885 180.148 289.955 185.057C285.025 189.967 278.47 192.671 271.5 192.671C264.53 192.671 257.975 189.967 253.045 185.057C248.115 180.148 245.4 173.619 245.4 166.677C245.4 164.093 245.776 161.564 246.503 159.157L233.276 145.981C229.912 152.13 228 159.181 228 166.677C228 190.604 247.475 210 271.5 210C295.525 210 315 190.604 315 166.677C315 159.183 313.088 152.13 309.724 145.981Z" fill="#0657F9"/>
<path d="M262.8 175.342H280.2V147.769L309.82 118.259L297.515 106.007L271.509 131.916L245.485 106L233.182 118.252L262.8 147.752V175.342Z" fill="#0657F9"/>
</svg>
