<svg width="562" height="318" viewBox="0 0 562 318" fill="none" xmlns="http://www.w3.org/2000/svg">
<path d="M297.591 160.16C298.322 162.595 298.7 165.163 298.7 167.779C298.7 174.815 295.963 181.43 290.999 186.4C286.035 191.37 279.426 194.11 272.399 194.11C265.372 194.11 258.771 191.37 253.799 186.4C248.834 181.43 246.097 174.815 246.097 167.779C246.097 165.163 246.476 162.604 247.207 160.16L233.875 146.814C230.489 153.042 228.558 160.185 228.558 167.779C228.558 192.02 248.185 211.669 272.399 211.669C296.613 211.669 316.24 192.02 316.24 167.779C316.24 160.185 314.317 153.042 310.922 146.814L297.591 160.16Z" fill="#0657F9"/>
<path d="M263.629 176.559H281.169V148.624L311.021 118.731L298.618 106.314L272.407 132.562L246.18 106.306L233.785 118.722L263.629 148.607V176.559Z" fill="#0657F9"/>
<path d="M176.185 317V1" stroke="#9D9D9D" stroke-width="0.5" stroke-miterlimit="10"/>
<path d="M193.675 317V1" stroke="#9D9D9D" stroke-width="0.5" stroke-miterlimit="10"/>
<path d="M211.166 317V1" stroke="#9D9D9D" stroke-width="0.5" stroke-miterlimit="10"/>
<path d="M228.656 317V1" stroke="#9D9D9D" stroke-width="0.5" stroke-miterlimit="10"/>
<path d="M246.146 317V1" stroke="#9D9D9D" stroke-width="0.5" stroke-miterlimit="10"/>
<path d="M263.637 317V1" stroke="#9D9D9D" stroke-width="0.5" stroke-miterlimit="10"/>
<path d="M281.136 317V1" stroke="#9D9D9D" stroke-width="0.5" stroke-miterlimit="10"/>
<path d="M298.626 317V1" stroke="#9D9D9D" stroke-width="0.5" stroke-miterlimit="10"/>
<path d="M316.117 317V1" stroke="#9D9D9D" stroke-width="0.5" stroke-miterlimit="10"/>
<path d="M333.607 317V1" stroke="#9D9D9D" stroke-width="0.5" stroke-miterlimit="10"/>
<path d="M351.098 317V1" stroke="#9D9D9D" stroke-width="0.5" stroke-miterlimit="10"/>
<path d="M368.588 317V1" stroke="#9D9D9D" stroke-width="0.5" stroke-miterlimit="10"/>
<path d="M386.079 317V1" stroke="#9D9D9D" stroke-width="0.5" stroke-miterlimit="10"/>
<path d="M403.578 317V1" stroke="#9D9D9D" stroke-width="0.5" stroke-miterlimit="10"/>
<path d="M421.068 317V1" stroke="#9D9D9D" stroke-width="0.5" stroke-miterlimit="10"/>
<path d="M438.558 317V1" stroke="#9D9D9D" stroke-width="0.5" stroke-miterlimit="10"/>
<path d="M456.049 317V1" stroke="#9D9D9D" stroke-width="0.5" stroke-miterlimit="10"/>
<path d="M473.54 317V1" stroke="#9D9D9D" stroke-width="0.5" stroke-miterlimit="10"/>
<path d="M491.03 317V1" stroke="#9D9D9D" stroke-width="0.5" stroke-miterlimit="10"/>
<path d="M508.528 317V1" stroke="#9D9D9D" stroke-width="0.5" stroke-miterlimit="10"/>
<path d="M526.019 317V1" stroke="#9D9D9D" stroke-width="0.5" stroke-miterlimit="10"/>
<path d="M543.51 317V1" stroke="#9D9D9D" stroke-width="0.5" stroke-miterlimit="10"/>
<path d="M561 317V1" stroke="#9D9D9D" stroke-width="0.5" stroke-miterlimit="10"/>
<path d="M1 317V1" stroke="#9D9D9D" stroke-width="0.5" stroke-miterlimit="10"/>
<path d="M18.4902 317V1" stroke="#9D9D9D" stroke-width="0.5" stroke-miterlimit="10"/>
<path d="M35.9814 317V1" stroke="#9D9D9D" stroke-width="0.5" stroke-miterlimit="10"/>
<path d="M53.4717 317V1" stroke="#9D9D9D" stroke-width="0.5" stroke-miterlimit="10"/>
<path d="M70.9702 317V1" stroke="#9D9D9D" stroke-width="0.5" stroke-miterlimit="10"/>
<path d="M158.645 317V1" stroke="#9D9D9D" stroke-width="0.5" stroke-miterlimit="10"/>
<path d="M141.104 317V1" stroke="#9D9D9D" stroke-width="0.5" stroke-miterlimit="10"/>
<path d="M123.573 317V1" stroke="#9D9D9D" stroke-width="0.5" stroke-miterlimit="10"/>
<path d="M106.034 317V1" stroke="#9D9D9D" stroke-width="0.5" stroke-miterlimit="10"/>
<path d="M88.5015 317V1" stroke="#9D9D9D" stroke-width="0.5" stroke-miterlimit="10"/>
<path d="M1 194.11H561" stroke="#9D9D9D" stroke-width="0.5" stroke-miterlimit="10"/>
<path d="M1 176.559H561" stroke="#9D9D9D" stroke-width="0.5" stroke-miterlimit="10"/>
<path d="M1 211.669H561" stroke="#9D9D9D" stroke-width="0.5" stroke-miterlimit="10"/>
<path d="M1 229.22H561" stroke="#9D9D9D" stroke-width="0.5" stroke-miterlimit="10"/>
<path d="M1 159H561" stroke="#9D9D9D" stroke-width="0.5" stroke-miterlimit="10"/>
<path d="M1 141.449H561" stroke="#9D9D9D" stroke-width="0.5" stroke-miterlimit="10"/>
<path d="M1 123.89H561" stroke="#9D9D9D" stroke-width="0.5" stroke-miterlimit="10"/>
<path d="M1 106.331H561" stroke="#9D9D9D" stroke-width="0.5" stroke-miterlimit="10"/>
<path d="M1 53.6696H561" stroke="#9D9D9D" stroke-width="0.5" stroke-miterlimit="10"/>
<path d="M1 36.1101H561" stroke="#9D9D9D" stroke-width="0.5" stroke-miterlimit="10"/>
<path d="M1 71.2202H561" stroke="#9D9D9D" stroke-width="0.5" stroke-miterlimit="10"/>
<path d="M1 88.7795H561" stroke="#9D9D9D" stroke-width="0.5" stroke-miterlimit="10"/>
<path d="M1 18.5594H561" stroke="#9D9D9D" stroke-width="0.5" stroke-miterlimit="10"/>
<path d="M1 1H561" stroke="#9D9D9D" stroke-width="0.5" stroke-miterlimit="10"/>
<path d="M1 317H561" stroke="#9D9D9D" stroke-width="0.5" stroke-miterlimit="10"/>
<path d="M1 299.449H561" stroke="#9D9D9D" stroke-width="0.5" stroke-miterlimit="10"/>
<path d="M1 281.889H561" stroke="#9D9D9D" stroke-width="0.5" stroke-miterlimit="10"/>
<path d="M1 264.339H561" stroke="#9D9D9D" stroke-width="0.5" stroke-miterlimit="10"/>
<path d="M1 246.779H561" stroke="#9D9D9D" stroke-width="0.5" stroke-miterlimit="10"/>
<path d="M316.142 211.941V229.302H228.632V211.809" fill="white"/>
<path d="M316.142 211.941V229.302H228.632V211.809" stroke="#0C0C0C" stroke-width="0.5" stroke-miterlimit="10"/>
<path d="M258.984 221.047L262.662 216.14H264.142V221.025H265.313V222.086H264.142V223.877H262.938V222.086H258.984V221.047ZM260.21 221.025H262.938V217.4L260.21 221.025Z" fill="#0C0C0C"/>
<path d="M266.022 219.832C266.022 219.095 266.147 218.443 266.398 217.875C266.655 217.301 267.016 216.859 267.48 216.549C267.944 216.232 268.474 216.074 269.071 216.074C269.66 216.074 270.183 216.232 270.639 216.549C271.103 216.859 271.464 217.301 271.722 217.875C271.979 218.443 272.108 219.095 272.108 219.832V220.185C272.108 220.952 271.979 221.618 271.722 222.186C271.471 222.753 271.114 223.188 270.65 223.49C270.194 223.792 269.667 223.943 269.071 223.943C268.467 223.943 267.933 223.792 267.469 223.49C267.012 223.188 266.655 222.753 266.398 222.186C266.147 221.618 266.022 220.952 266.022 220.185V219.832ZM270.882 219.876C270.882 219.021 270.716 218.354 270.385 217.875C270.061 217.389 269.623 217.146 269.071 217.146C268.518 217.146 268.077 217.389 267.745 217.875C267.414 218.354 267.248 219.021 267.248 219.876V220.141C267.248 220.996 267.414 221.666 267.745 222.153C268.077 222.631 268.518 222.871 269.071 222.871C269.623 222.871 270.061 222.631 270.385 222.153C270.716 221.666 270.882 220.996 270.882 220.141V219.876Z" fill="#0C0C0C"/>
<path d="M276.181 218.152C276.697 218.152 277.157 218.27 277.562 218.505C277.967 218.734 278.284 219.069 278.512 219.511C278.74 219.946 278.854 220.458 278.854 221.047C278.854 221.622 278.74 222.13 278.512 222.572C278.284 223.007 277.967 223.346 277.562 223.589C277.157 223.825 276.697 223.943 276.181 223.943C275.762 223.943 275.397 223.866 275.088 223.711C274.779 223.556 274.532 223.346 274.348 223.081V226.087H273.155V218.218H274.193L274.337 219.058C274.793 218.454 275.408 218.152 276.181 218.152ZM275.983 222.937C276.476 222.937 276.874 222.76 277.176 222.407C277.485 222.053 277.639 221.6 277.639 221.047C277.639 220.487 277.485 220.034 277.176 219.688C276.874 219.342 276.476 219.169 275.983 219.169C275.489 219.169 275.092 219.342 274.79 219.688C274.488 220.027 274.337 220.473 274.337 221.025C274.337 221.593 274.488 222.053 274.79 222.407C275.092 222.76 275.489 222.937 275.983 222.937Z" fill="#0C0C0C"/>
<path d="M281.175 220.981L279.175 218.218H280.567L281.926 220.13L283.306 218.218H284.61L282.6 220.981L284.731 223.877H283.34L281.848 221.821L280.346 223.877H279.054L281.175 220.981Z" fill="#0C0C0C"/>
</svg>
