<svg width="562" height="318" viewBox="0 0 562 318" fill="none" xmlns="http://www.w3.org/2000/svg">
<path d="M297.373 159.953C298.104 162.386 298.482 164.95 298.482 167.563C298.482 174.589 295.747 181.196 290.786 186.159C285.825 191.123 279.222 193.859 272.2 193.859C265.178 193.859 258.582 191.123 253.613 186.159C248.653 181.196 245.918 174.589 245.918 167.563C245.918 164.95 246.295 162.394 247.026 159.953L233.705 146.624C230.321 152.845 228.391 159.978 228.391 167.563C228.391 191.772 248.004 211.395 272.2 211.395C296.396 211.395 316.009 191.772 316.009 167.563C316.009 159.978 314.087 152.845 310.695 146.624L297.373 159.953Z" fill="#0657F9"/>
<path d="M263.436 176.331H280.963V148.432L310.794 118.578L298.4 106.177L272.208 132.391L246 106.169L233.614 118.569L263.436 148.416V176.331Z" fill="#0657F9"/>
<path d="M297.373 264.835C298.104 267.267 298.482 269.831 298.482 272.444C298.482 279.47 295.747 286.077 290.786 291.041C285.825 296.004 279.222 298.74 272.2 298.74C265.178 298.74 258.582 296.004 253.613 291.041C248.653 286.077 245.918 279.47 245.918 272.444C245.918 269.831 246.295 267.275 247.026 264.835L233.705 251.506C230.321 257.726 228.391 264.859 228.391 272.444C228.391 296.653 248.004 316.277 272.2 316.277C296.396 316.277 316.009 296.653 316.009 272.444C316.009 264.859 314.087 257.726 310.695 251.506L297.373 264.835Z" fill="#EBEBEB"/>
<path d="M263.436 281.212H280.963V253.313L310.794 223.459L298.4 211.059L272.208 237.273L246 211.05L233.614 223.451L263.436 253.297V281.212Z" fill="#EBEBEB"/>
<path d="M209.813 159.904C210.544 162.336 210.921 164.9 210.921 167.513C210.921 174.539 208.186 181.146 203.226 186.11C198.265 191.073 191.662 193.81 184.639 193.81C177.617 193.81 171.022 191.073 166.053 186.11C161.092 181.146 158.357 174.539 158.357 167.513C158.357 164.9 158.735 162.345 159.466 159.904L146.144 146.575C142.76 152.796 140.83 159.929 140.83 167.513C140.83 191.723 160.443 211.346 184.639 211.346C208.835 211.346 228.448 191.723 228.448 167.513C228.448 159.929 226.527 152.796 223.134 146.575L209.813 159.904Z" fill="#EBEBEB"/>
<path d="M175.876 176.273H193.403V148.375L223.233 118.52L210.839 106.128L184.647 132.342L158.439 106.12L146.054 118.52L175.876 148.358V176.273Z" fill="#EBEBEB"/>
<path d="M384.811 159.904C385.542 162.336 385.919 164.9 385.919 167.513C385.919 174.539 383.185 181.146 378.224 186.11C373.263 191.073 366.66 193.81 359.637 193.81C352.615 193.81 346.02 191.073 341.051 186.11C336.09 181.146 333.355 174.539 333.355 167.513C333.355 164.9 333.733 162.345 334.464 159.904L321.142 146.575C317.758 152.796 315.828 159.929 315.828 167.513C315.828 191.723 335.441 211.346 359.637 211.346C383.833 211.346 403.446 191.723 403.446 167.513C403.446 159.929 401.525 152.796 398.133 146.575L384.811 159.904Z" fill="#EBEBEB"/>
<path d="M350.874 176.273H368.401V148.375L398.231 118.52L385.837 106.128L359.646 132.342L333.437 106.12L321.052 118.52L350.874 148.358V176.273Z" fill="#EBEBEB"/>
<path d="M297.373 54.8336C298.104 57.266 298.482 59.8299 298.482 62.4431C298.482 69.4692 295.747 76.0761 290.786 81.0396C285.825 86.003 279.222 88.7395 272.2 88.7395C265.178 88.7395 258.582 86.003 253.613 81.0396C248.653 76.0761 245.918 69.4692 245.918 62.4431C245.918 59.8299 246.295 57.2742 247.026 54.8336L233.705 41.5046C230.321 47.7254 228.391 54.8583 228.391 62.4431C228.391 86.6522 248.004 106.276 272.2 106.276C296.396 106.276 316.009 86.6522 316.009 62.4431C316.009 54.8583 314.087 47.7254 310.695 41.5046L297.373 54.8336Z" fill="#EBEBEB"/>
<path d="M263.436 71.2113H280.963V43.3125L310.794 13.4579L298.4 1.05753L272.208 27.2717L246 1.04932L233.614 13.4497L263.436 43.2961V71.2113Z" fill="#EBEBEB"/>
<path d="M176.185 317V1" stroke="#9D9D9D" stroke-width="0.5" stroke-miterlimit="10"/>
<path d="M193.675 317V1" stroke="#9D9D9D" stroke-width="0.5" stroke-miterlimit="10"/>
<path d="M211.166 317V1" stroke="#9D9D9D" stroke-width="0.5" stroke-miterlimit="10"/>
<path d="M228.656 317V1" stroke="#9D9D9D" stroke-width="0.5" stroke-miterlimit="10"/>
<path d="M246.146 317V1" stroke="#9D9D9D" stroke-width="0.5" stroke-miterlimit="10"/>
<path d="M263.637 317V1" stroke="#9D9D9D" stroke-width="0.5" stroke-miterlimit="10"/>
<path d="M281.136 317V1" stroke="#9D9D9D" stroke-width="0.5" stroke-miterlimit="10"/>
<path d="M298.626 317V1" stroke="#9D9D9D" stroke-width="0.5" stroke-miterlimit="10"/>
<path d="M316.117 317V1" stroke="#9D9D9D" stroke-width="0.5" stroke-miterlimit="10"/>
<path d="M333.607 317V1" stroke="#9D9D9D" stroke-width="0.5" stroke-miterlimit="10"/>
<path d="M351.098 317V1" stroke="#9D9D9D" stroke-width="0.5" stroke-miterlimit="10"/>
<path d="M368.588 317V1" stroke="#9D9D9D" stroke-width="0.5" stroke-miterlimit="10"/>
<path d="M386.079 317V1" stroke="#9D9D9D" stroke-width="0.5" stroke-miterlimit="10"/>
<path d="M403.578 317V1" stroke="#9D9D9D" stroke-width="0.5" stroke-miterlimit="10"/>
<path d="M421.068 317V1" stroke="#9D9D9D" stroke-width="0.5" stroke-miterlimit="10"/>
<path d="M438.558 317V1" stroke="#9D9D9D" stroke-width="0.5" stroke-miterlimit="10"/>
<path d="M456.049 317V1" stroke="#9D9D9D" stroke-width="0.5" stroke-miterlimit="10"/>
<path d="M473.54 317V1" stroke="#9D9D9D" stroke-width="0.5" stroke-miterlimit="10"/>
<path d="M491.03 317V1" stroke="#9D9D9D" stroke-width="0.5" stroke-miterlimit="10"/>
<path d="M508.528 317V1" stroke="#9D9D9D" stroke-width="0.5" stroke-miterlimit="10"/>
<path d="M526.019 317V1" stroke="#9D9D9D" stroke-width="0.5" stroke-miterlimit="10"/>
<path d="M543.51 317V1" stroke="#9D9D9D" stroke-width="0.5" stroke-miterlimit="10"/>
<path d="M561 317V1" stroke="#9D9D9D" stroke-width="0.5" stroke-miterlimit="10"/>
<path d="M1 317V1" stroke="#9D9D9D" stroke-width="0.5" stroke-miterlimit="10"/>
<path d="M18.4902 317V1" stroke="#9D9D9D" stroke-width="0.5" stroke-miterlimit="10"/>
<path d="M35.9814 317V1" stroke="#9D9D9D" stroke-width="0.5" stroke-miterlimit="10"/>
<path d="M53.4717 317V1" stroke="#9D9D9D" stroke-width="0.5" stroke-miterlimit="10"/>
<path d="M70.9702 317V1" stroke="#9D9D9D" stroke-width="0.5" stroke-miterlimit="10"/>
<path d="M158.645 317V1" stroke="#9D9D9D" stroke-width="0.5" stroke-miterlimit="10"/>
<path d="M141.104 317V1" stroke="#9D9D9D" stroke-width="0.5" stroke-miterlimit="10"/>
<path d="M123.573 317V1" stroke="#9D9D9D" stroke-width="0.5" stroke-miterlimit="10"/>
<path d="M106.034 317V1" stroke="#9D9D9D" stroke-width="0.5" stroke-miterlimit="10"/>
<path d="M88.5015 317V1" stroke="#9D9D9D" stroke-width="0.5" stroke-miterlimit="10"/>
<path d="M1 194.11H561" stroke="#9D9D9D" stroke-width="0.5" stroke-miterlimit="10"/>
<path d="M1 176.559H561" stroke="#9D9D9D" stroke-width="0.5" stroke-miterlimit="10"/>
<path d="M1 211.669H561" stroke="#9D9D9D" stroke-width="0.5" stroke-miterlimit="10"/>
<path d="M1 229.22H561" stroke="#9D9D9D" stroke-width="0.5" stroke-miterlimit="10"/>
<path d="M1 159H561" stroke="#9D9D9D" stroke-width="0.5" stroke-miterlimit="10"/>
<path d="M1 141.449H561" stroke="#9D9D9D" stroke-width="0.5" stroke-miterlimit="10"/>
<path d="M1 123.89H561" stroke="#9D9D9D" stroke-width="0.5" stroke-miterlimit="10"/>
<path d="M1 106.331H561" stroke="#9D9D9D" stroke-width="0.5" stroke-miterlimit="10"/>
<path d="M1 53.6696H561" stroke="#9D9D9D" stroke-width="0.5" stroke-miterlimit="10"/>
<path d="M1 36.1101H561" stroke="#9D9D9D" stroke-width="0.5" stroke-miterlimit="10"/>
<path d="M1 71.2202H561" stroke="#9D9D9D" stroke-width="0.5" stroke-miterlimit="10"/>
<path d="M1 88.7795H561" stroke="#9D9D9D" stroke-width="0.5" stroke-miterlimit="10"/>
<path d="M1 18.5594H561" stroke="#9D9D9D" stroke-width="0.5" stroke-miterlimit="10"/>
<path d="M1 1H561" stroke="#9D9D9D" stroke-width="0.5" stroke-miterlimit="10"/>
<path d="M1 317H561" stroke="#9D9D9D" stroke-width="0.5" stroke-miterlimit="10"/>
<path d="M1 299.449H561" stroke="#9D9D9D" stroke-width="0.5" stroke-miterlimit="10"/>
<path d="M1 281.889H561" stroke="#9D9D9D" stroke-width="0.5" stroke-miterlimit="10"/>
<path d="M1 264.339H561" stroke="#9D9D9D" stroke-width="0.5" stroke-miterlimit="10"/>
<path d="M1 246.779H561" stroke="#9D9D9D" stroke-width="0.5" stroke-miterlimit="10"/>
<path d="M228.464 211.568V228.907H141.019V211.428" fill="white"/>
<path d="M228.464 211.568V228.907H141.019V211.428" stroke="#0C0C0C" stroke-width="0.5" stroke-miterlimit="10"/>
<path d="M162.928 220.661L160.917 217.883H162.317L163.684 219.806L165.073 217.883H166.384L164.362 220.661L166.506 223.572H165.106L163.606 221.506L162.095 223.572H160.795L162.928 220.661Z" fill="#0C0C0C"/>
<path d="M169.632 215.794V223.572H168.41V218.317C168.299 218.383 168.136 218.417 167.921 218.417H166.643V217.372H167.866C168.051 217.372 168.192 217.306 168.288 217.172C168.384 217.039 168.432 216.865 168.432 216.65V215.794H169.632Z" fill="#0C0C0C"/>
<path d="M174.784 221.694C174.806 221.991 174.943 222.235 175.195 222.428C175.454 222.613 175.787 222.706 176.195 222.706C176.558 222.706 176.85 222.639 177.072 222.506C177.302 222.365 177.417 222.18 177.417 221.95C177.417 221.757 177.365 221.613 177.261 221.517C177.158 221.42 177.017 221.354 176.839 221.317C176.669 221.272 176.402 221.228 176.039 221.183C175.543 221.124 175.132 221.046 174.806 220.95C174.487 220.846 174.228 220.687 174.028 220.472C173.835 220.25 173.739 219.954 173.739 219.583C173.739 219.235 173.835 218.928 174.028 218.661C174.228 218.387 174.498 218.176 174.839 218.028C175.187 217.88 175.58 217.806 176.017 217.806C176.735 217.806 177.317 217.965 177.761 218.283C178.213 218.602 178.458 219.05 178.495 219.628H177.328C177.298 219.369 177.169 219.157 176.939 218.994C176.709 218.824 176.421 218.739 176.072 218.739C175.724 218.739 175.443 218.806 175.228 218.939C175.013 219.072 174.906 219.254 174.906 219.483C174.906 219.654 174.958 219.783 175.061 219.872C175.172 219.954 175.309 220.013 175.472 220.05C175.635 220.08 175.898 220.117 176.261 220.161C176.75 220.213 177.161 220.294 177.495 220.406C177.828 220.509 178.095 220.68 178.295 220.917C178.495 221.146 178.595 221.461 178.595 221.861C178.595 222.217 178.491 222.531 178.284 222.806C178.076 223.072 177.791 223.28 177.428 223.428C177.065 223.569 176.658 223.639 176.206 223.639C175.443 223.639 174.824 223.469 174.35 223.128C173.884 222.78 173.643 222.302 173.628 221.694H174.784Z" fill="#0C0C0C"/>
<path d="M180.127 217.883L181.716 222.272L183.261 217.883H184.538L181.961 224.461C181.827 224.802 181.705 225.061 181.594 225.239C181.483 225.424 181.346 225.561 181.183 225.65C181.02 225.746 180.801 225.794 180.527 225.794H179.238V224.739H180.083C180.312 224.739 180.472 224.702 180.561 224.628C180.649 224.561 180.742 224.406 180.838 224.161L181.072 223.617L178.849 217.883H180.127Z" fill="#0C0C0C"/>
<path d="M191.712 217.817C192.334 217.817 192.842 218.02 193.234 218.428C193.627 218.828 193.823 219.472 193.823 220.361V223.572H192.623V220.372C192.623 219.876 192.523 219.498 192.323 219.239C192.123 218.98 191.827 218.85 191.434 218.85C191.019 218.85 190.69 218.998 190.445 219.294C190.208 219.583 190.09 219.983 190.09 220.494V223.572H188.879V220.372C188.879 219.869 188.775 219.491 188.567 219.239C188.367 218.98 188.071 218.85 187.679 218.85C187.271 218.85 186.945 219.002 186.701 219.306C186.464 219.609 186.345 220.017 186.345 220.528V223.572H185.145V217.883H186.19L186.323 218.628C186.73 218.094 187.286 217.824 187.99 217.817C188.39 217.817 188.742 217.902 189.045 218.072C189.349 218.243 189.582 218.502 189.745 218.85C189.945 218.524 190.208 218.272 190.534 218.094C190.86 217.909 191.253 217.817 191.712 217.817Z" fill="#0C0C0C"/>
<path d="M197.955 217.817C198.474 217.817 198.937 217.935 199.344 218.172C199.752 218.402 200.07 218.735 200.3 219.172C200.529 219.609 200.644 220.128 200.644 220.728C200.644 221.298 200.529 221.806 200.3 222.25C200.07 222.687 199.752 223.028 199.344 223.272C198.937 223.517 198.474 223.639 197.955 223.639C197.533 223.639 197.166 223.561 196.855 223.406C196.544 223.243 196.292 223.024 196.1 222.75L195.955 223.572H194.911V215.794H196.111V218.728C196.563 218.12 197.178 217.817 197.955 217.817ZM197.755 222.628C198.252 222.628 198.652 222.454 198.955 222.106C199.266 221.75 199.422 221.291 199.422 220.728C199.422 220.172 199.266 219.72 198.955 219.372C198.652 219.017 198.252 218.839 197.755 218.839C197.259 218.839 196.859 219.013 196.555 219.361C196.252 219.709 196.1 220.161 196.1 220.717C196.1 221.28 196.252 221.739 196.555 222.094C196.859 222.45 197.259 222.628 197.755 222.628Z" fill="#0C0C0C"/>
<path d="M204.295 223.639C203.724 223.639 203.217 223.52 202.772 223.283C202.335 223.039 201.995 222.698 201.75 222.261C201.513 221.817 201.395 221.306 201.395 220.728C201.395 220.157 201.513 219.654 201.75 219.217C201.995 218.772 202.335 218.428 202.772 218.183C203.217 217.939 203.724 217.817 204.295 217.817C204.865 217.817 205.369 217.939 205.806 218.183C206.25 218.428 206.591 218.772 206.828 219.217C207.072 219.654 207.195 220.157 207.195 220.728C207.195 221.306 207.072 221.817 206.828 222.261C206.591 222.698 206.25 223.039 205.806 223.283C205.369 223.52 204.865 223.639 204.295 223.639ZM204.295 222.617C204.798 222.617 205.202 222.443 205.506 222.094C205.817 221.739 205.972 221.283 205.972 220.728C205.972 220.172 205.817 219.72 205.506 219.372C205.202 219.017 204.798 218.839 204.295 218.839C203.791 218.839 203.387 219.017 203.084 219.372C202.78 219.72 202.628 220.172 202.628 220.728C202.628 221.283 202.78 221.739 203.084 222.094C203.387 222.443 203.791 222.617 204.295 222.617Z" fill="#0C0C0C"/>
<path d="M208.16 215.794H209.36V223.572H208.16V215.794Z" fill="#0C0C0C"/>
</svg>
