<svg width="560" height="316" viewBox="0 0 560 316" fill="none" xmlns="http://www.w3.org/2000/svg">
<rect x="0.5" y="0.5" width="559" height="315" stroke="#E1E1E1"/>
<path d="M280.004 246.008C328.607 246.008 368.008 206.607 368.008 158.004C368.008 109.401 328.607 70 280.004 70C231.401 70 192 109.401 192 158.004C192 206.607 231.401 246.008 280.004 246.008Z" fill="#0657F9"/>
<path d="M326.206 143.668L310.244 159.259C311.119 162.106 311.573 165.102 311.573 168.156C311.573 176.368 308.296 184.093 302.354 189.903C296.403 195.713 288.497 198.907 280.087 198.907C271.677 198.907 263.77 195.705 257.82 189.903C251.869 184.093 248.601 176.368 248.601 168.156C248.601 165.094 249.055 162.106 249.929 159.259L233.968 143.668C229.907 150.948 227.604 159.284 227.604 168.156C227.604 196.464 251.101 219.417 280.078 219.417C309.056 219.417 332.552 196.464 332.552 168.156C332.552 159.284 330.25 150.948 326.189 143.668H326.206Z" fill="white"/>
<path d="M269.597 178.406H290.585V145.781L326.321 110.87L311.474 96.3774L280.103 127.03L248.708 96.3691L233.869 110.862L269.597 145.765V178.406Z" fill="white"/>
</svg>
