<svg width="562" height="318" viewBox="0 0 562 318" fill="none" xmlns="http://www.w3.org/2000/svg">
<path d="M281.004 246.697C329.407 246.697 368.646 207.415 368.646 158.959C368.646 110.502 329.407 71.2202 281.004 71.2202C232.601 71.2202 193.363 110.502 193.363 158.959C193.363 207.415 232.601 246.697 281.004 246.697Z" fill="#0657F9"/>
<path d="M327.015 144.674L311.119 160.217C311.991 163.056 312.443 166.043 312.443 169.087C312.443 177.275 309.18 184.976 303.262 190.769C297.336 196.562 289.462 199.746 281.086 199.746C272.711 199.746 264.837 196.554 258.911 190.769C252.985 184.976 249.73 177.275 249.73 169.087C249.73 166.035 250.182 163.056 251.053 160.217L235.157 144.674C231.113 151.931 228.82 160.242 228.82 169.087C228.82 197.311 252.22 220.194 281.078 220.194C309.936 220.194 333.336 197.311 333.336 169.087C333.336 160.242 331.043 151.931 326.999 144.674H327.015Z" fill="white"/>
<path d="M270.64 179.307H291.542V146.781L327.131 111.975L312.344 97.518L281.103 128.086L249.837 97.5098L235.059 111.967L270.64 146.764V179.307Z" fill="white"/>
<path d="M176.185 317V1" stroke="#9D9D9D" stroke-width="0.410881" stroke-miterlimit="10"/>
<path d="M193.675 317V1" stroke="#9D9D9D" stroke-width="0.410881" stroke-miterlimit="10"/>
<path d="M211.166 317V1" stroke="#9D9D9D" stroke-width="0.410881" stroke-miterlimit="10"/>
<path d="M228.656 317V1" stroke="#9D9D9D" stroke-width="0.410881" stroke-miterlimit="10"/>
<path d="M246.146 317V1" stroke="#9D9D9D" stroke-width="0.410881" stroke-miterlimit="10"/>
<path d="M263.637 317V1" stroke="#9D9D9D" stroke-width="0.410881" stroke-miterlimit="10"/>
<path d="M281.136 317V1" stroke="#9D9D9D" stroke-width="0.410881" stroke-miterlimit="10"/>
<path d="M298.626 317V1" stroke="#9D9D9D" stroke-width="0.410881" stroke-miterlimit="10"/>
<path d="M316.117 317V1" stroke="#9D9D9D" stroke-width="0.410881" stroke-miterlimit="10"/>
<path d="M333.607 317V1" stroke="#9D9D9D" stroke-width="0.410881" stroke-miterlimit="10"/>
<path d="M351.098 317V1" stroke="#9D9D9D" stroke-width="0.410881" stroke-miterlimit="10"/>
<path d="M368.588 317V1" stroke="#9D9D9D" stroke-width="0.410881" stroke-miterlimit="10"/>
<path d="M386.079 317V1" stroke="#9D9D9D" stroke-width="0.410881" stroke-miterlimit="10"/>
<path d="M403.577 317V1" stroke="#9D9D9D" stroke-width="0.410881" stroke-miterlimit="10"/>
<path d="M421.068 317V1" stroke="#9D9D9D" stroke-width="0.410881" stroke-miterlimit="10"/>
<path d="M438.558 317V1" stroke="#9D9D9D" stroke-width="0.410881" stroke-miterlimit="10"/>
<path d="M456.049 317V1" stroke="#9D9D9D" stroke-width="0.410881" stroke-miterlimit="10"/>
<path d="M473.539 317V1" stroke="#9D9D9D" stroke-width="0.410881" stroke-miterlimit="10"/>
<path d="M491.03 317V1" stroke="#9D9D9D" stroke-width="0.410881" stroke-miterlimit="10"/>
<path d="M508.528 317V1" stroke="#9D9D9D" stroke-width="0.410881" stroke-miterlimit="10"/>
<path d="M526.019 317V1" stroke="#9D9D9D" stroke-width="0.410881" stroke-miterlimit="10"/>
<path d="M543.509 317V1" stroke="#9D9D9D" stroke-width="0.410881" stroke-miterlimit="10"/>
<path d="M561 317V1" stroke="#9D9D9D" stroke-width="0.410881" stroke-miterlimit="10"/>
<path d="M1 317V1" stroke="#9D9D9D" stroke-width="0.410881" stroke-miterlimit="10"/>
<path d="M18.4902 317V1" stroke="#9D9D9D" stroke-width="0.410881" stroke-miterlimit="10"/>
<path d="M35.981 317V1" stroke="#9D9D9D" stroke-width="0.410881" stroke-miterlimit="10"/>
<path d="M53.4717 317V1" stroke="#9D9D9D" stroke-width="0.410881" stroke-miterlimit="10"/>
<path d="M70.9702 317V1" stroke="#9D9D9D" stroke-width="0.410881" stroke-miterlimit="10"/>
<path d="M158.645 317V1" stroke="#9D9D9D" stroke-width="0.410881" stroke-miterlimit="10"/>
<path d="M141.105 317V1" stroke="#9D9D9D" stroke-width="0.410881" stroke-miterlimit="10"/>
<path d="M123.573 317V1" stroke="#9D9D9D" stroke-width="0.410881" stroke-miterlimit="10"/>
<path d="M106.034 317V1" stroke="#9D9D9D" stroke-width="0.410881" stroke-miterlimit="10"/>
<path d="M88.502 317V1" stroke="#9D9D9D" stroke-width="0.410881" stroke-miterlimit="10"/>
<path d="M1 194.11H561" stroke="#9D9D9D" stroke-width="0.410881" stroke-miterlimit="10"/>
<path d="M1 176.559H561" stroke="#9D9D9D" stroke-width="0.410881" stroke-miterlimit="10"/>
<path d="M1 211.669H561" stroke="#9D9D9D" stroke-width="0.410881" stroke-miterlimit="10"/>
<path d="M1 229.22H561" stroke="#9D9D9D" stroke-width="0.410881" stroke-miterlimit="10"/>
<path d="M228.722 220.449H333.393" stroke="#9D9D9D" stroke-width="0.410881" stroke-miterlimit="10"/>
<path d="M228.722 97.5591H333.393" stroke="#9D9D9D" stroke-width="0.410881" stroke-miterlimit="10"/>
<path d="M1 159H561" stroke="#9D9D9D" stroke-width="0.410881" stroke-miterlimit="10"/>
<path d="M1 141.449H561" stroke="#9D9D9D" stroke-width="0.410881" stroke-miterlimit="10"/>
<path d="M1 123.89H561" stroke="#9D9D9D" stroke-width="0.410881" stroke-miterlimit="10"/>
<path d="M1 106.33H561" stroke="#9D9D9D" stroke-width="0.410881" stroke-miterlimit="10"/>
<path d="M1 53.6692H561" stroke="#9D9D9D" stroke-width="0.410881" stroke-miterlimit="10"/>
<path d="M1 36.1099H561" stroke="#9D9D9D" stroke-width="0.410881" stroke-miterlimit="10"/>
<path d="M1 71.2202H561" stroke="#9D9D9D" stroke-width="0.410881" stroke-miterlimit="10"/>
<path d="M1 88.7798H561" stroke="#9D9D9D" stroke-width="0.410881" stroke-miterlimit="10"/>
<path d="M1 18.5591H561" stroke="#9D9D9D" stroke-width="0.410881" stroke-miterlimit="10"/>
<path d="M1 1H561" stroke="#9D9D9D" stroke-width="0.410881" stroke-miterlimit="10"/>
<path d="M1 317H561" stroke="#9D9D9D" stroke-width="0.410881" stroke-miterlimit="10"/>
<path d="M1 299.449H561" stroke="#9D9D9D" stroke-width="0.410881" stroke-miterlimit="10"/>
<path d="M1 281.89H561" stroke="#9D9D9D" stroke-width="0.410881" stroke-miterlimit="10"/>
<path d="M1 264.338H561" stroke="#9D9D9D" stroke-width="0.410881" stroke-miterlimit="10"/>
<path d="M1 246.78H561" stroke="#9D9D9D" stroke-width="0.410881" stroke-miterlimit="10"/>
</svg>
