<svg width="560" height="316" viewBox="0 0 560 316" fill="none" xmlns="http://www.w3.org/2000/svg">
<path d="M560 0L0 0L0 316L560 316V0Z" fill="black"/>
<path d="M41.28 56V54.2H28.824V30.8H26.88V56H41.28ZM50.4507 33.608C51.3147 33.608 51.9987 32.96 51.9987 32.024C51.9987 31.16 51.3147 30.512 50.4507 30.512C49.5867 30.512 48.9027 31.16 48.9027 32.024C48.9027 32.96 49.5867 33.608 50.4507 33.608ZM51.3507 54.308V37.748H44.0067V39.44H49.5147V54.308H44.0067V56H56.8587V54.308H51.3507ZM75.4913 42.032C74.3753 39.296 71.9633 37.532 68.5073 37.532C63.5033 37.532 59.9393 41.312 59.9393 46.856C59.9393 52.616 63.5393 56.216 68.5073 56.216C71.9633 56.216 74.3753 54.416 75.5273 51.572V54.812C75.5273 59.672 73.2233 61.76 68.7953 61.76C65.3753 61.76 62.9993 60.212 62.4233 57.44H60.5513C61.1273 61.328 64.2233 63.416 68.6873 63.416C74.5553 63.416 77.3633 60.608 77.3633 54.884V37.748H75.7433L75.4913 42.032ZM68.6873 54.56C64.6193 54.56 61.8113 51.392 61.8113 46.856C61.8113 42.32 64.6193 39.152 68.6873 39.152C72.7553 39.152 75.5633 42.32 75.5633 46.892C75.5633 51.392 72.7553 54.56 68.6873 54.56ZM91.2685 37.532C88.2805 37.532 85.9405 39.008 84.7525 41.528V30.8H82.9165V56H84.7525V46.64C84.7525 42.104 87.1645 39.224 90.9805 39.224C94.4365 39.224 96.5245 41.384 96.5245 45.488V56H98.3965V45.416C98.3965 40.232 95.6245 37.532 91.2685 37.532ZM115.617 56V54.308H110.901C108.993 54.308 108.309 53.588 108.309 51.716V39.44H115.437V37.748H108.309V32.636H106.473V37.748H101.325V39.44H106.473V51.752C106.473 54.668 107.625 56 110.721 56H115.617ZM30.012 94V84.316H35.7L41.136 94H44.664L38.904 83.704C42.216 82.804 44.412 80.068 44.412 76.54C44.412 71.824 40.992 68.8 35.88 68.8H26.88V94H30.012ZM30.012 71.68H35.664C39.012 71.68 41.208 73.588 41.208 76.54C41.208 79.492 39.012 81.436 35.628 81.436H30.012V71.68ZM64.8811 85.468C64.9171 85.036 64.9531 84.424 64.9531 84.136C64.8091 78.7 61.4251 75.424 56.2411 75.424C51.0571 75.424 47.5291 79.24 47.5291 84.82C47.5291 90.436 51.1291 94.216 56.6371 94.216C60.8851 94.216 63.9091 91.516 64.6291 87.844H61.6411C61.0291 90.22 59.0131 91.588 56.4211 91.588C52.9291 91.588 50.7331 89.14 50.6251 85.648V85.468H64.8811ZM56.2771 78.016C59.3371 78.016 61.4971 79.78 61.7851 82.948H50.8051C51.0931 79.96 53.5771 78.016 56.2771 78.016ZM83.8835 78.808C82.7315 76.756 80.6795 75.424 77.5835 75.424C72.5075 75.424 68.7635 79.204 68.7635 84.82C68.7635 90.796 72.5075 94.216 77.5835 94.216C80.6795 94.216 82.6595 92.92 83.8835 90.832V92.992C83.8835 96.988 81.7955 98.788 77.9435 98.788C74.8835 98.788 72.8315 97.492 72.3275 95.188H69.3035C69.7715 99.22 73.0475 101.416 77.7275 101.416C84.0275 101.416 86.8355 98.392 86.8355 93.1V75.64H84.2795L83.8835 78.808ZM77.8715 91.588C74.2355 91.588 71.7875 88.816 71.7875 84.82C71.7875 80.824 74.2355 78.052 77.8715 78.052C81.4715 78.052 83.9195 80.86 83.9195 84.892C83.9195 88.816 81.4715 91.588 77.8715 91.588ZM105.117 85.18C105.117 89.104 103.101 91.516 99.8607 91.516C96.9447 91.516 95.2167 89.608 95.2167 86.044V75.64H92.2647V86.224C92.2647 92.056 95.4687 94.216 99.3567 94.216C102.273 94.216 104.037 92.92 105.117 91.552L105.513 94H108.069V75.64H105.117V85.18ZM120.807 91.3V68.8H112.311V71.5H117.855V91.3H112.311V94H126.387V91.3H120.807ZM145.766 91.3C144.938 91.3 144.578 91.048 144.578 90.076V82.048C144.578 77.764 141.878 75.424 137.198 75.424C132.77 75.424 129.854 77.548 129.422 81.148H132.374C132.734 79.276 134.462 78.052 137.054 78.052C139.934 78.052 141.626 79.492 141.626 81.868V83.128H136.226C131.402 83.128 128.846 85.18 128.846 88.852C128.846 92.2 131.582 94.216 135.614 94.216C138.782 94.216 140.618 92.812 141.77 91.156C141.806 92.956 142.634 94 145.082 94H146.702V91.3H145.766ZM141.626 86.512C141.626 89.572 139.502 91.696 135.83 91.696C133.382 91.696 131.834 90.472 131.834 88.672C131.834 86.584 133.31 85.612 135.938 85.612H141.626V86.512ZM162.507 75.64C159.015 75.64 157.359 77.296 156.531 78.736L156.423 75.64H149.511V78.34H153.615V91.3H149.511V94H161.931V91.3H156.567V84.712C156.567 81.796 157.827 78.52 162.111 78.52H164.487V75.64H162.507ZM36.276 132C42.252 132 45.564 129.264 45.564 124.836C45.564 121.344 43.404 119.472 40.128 119.04C42.972 118.392 44.664 116.52 44.664 113.46C44.664 109.284 41.496 106.8 35.844 106.8H26.592V132H36.276ZM31.992 110.94H35.772C38.04 110.94 39.3 112.164 39.3 114.072C39.3 116.016 38.04 117.204 35.772 117.204H31.992V110.94ZM31.992 121.308H36.096C38.616 121.308 40.092 122.496 40.092 124.584C40.092 126.636 38.688 127.824 36.096 127.824H31.992V121.308ZM58.22 132.216C63.944 132.216 67.76 128.436 67.76 122.748C67.76 117.06 63.944 113.28 58.22 113.28C52.532 113.28 48.716 117.06 48.716 122.748C48.716 128.436 52.532 132.216 58.22 132.216ZM58.22 128.076C55.592 128.076 53.9 125.844 53.9 122.748C53.9 119.652 55.592 117.42 58.22 117.42C60.884 117.42 62.576 119.616 62.576 122.748C62.576 125.88 60.884 128.076 58.22 128.076ZM79.9575 127.716V106.8H69.7695V111.084H74.8455V127.716H69.7695V132H84.8175V127.716H79.9575ZM100.58 115.584C99.3919 114.216 97.6639 113.28 95.2879 113.28C90.4639 113.28 86.7199 116.988 86.7199 122.712C86.7199 128.58 90.2839 132.216 95.1799 132.216C97.7719 132.216 99.5359 130.992 100.724 129.408L101.228 132H105.656V106.8H100.58V115.584ZM96.2959 128.076C93.5959 128.076 91.9039 125.88 91.9039 122.748C91.9039 119.616 93.5959 117.42 96.2959 117.42C98.9599 117.42 100.652 119.616 100.652 122.784C100.652 125.916 98.9599 128.076 96.2959 128.076Z" fill="white"/>
<path d="M319.29 72L323.431 60.4899H340.909L344.989 72H350.653L335.489 29.37H328.973L313.87 72H319.29ZM332.079 35.1555L339.326 55.6788H324.953L332.079 35.1555ZM380.721 67.4325C379.32 67.4325 378.711 67.0062 378.711 65.3619V51.7812C378.711 44.5341 374.143 40.5756 366.226 40.5756C358.736 40.5756 353.803 44.1687 353.072 50.2587H358.066C358.675 47.0919 361.598 45.0213 365.983 45.0213C370.855 45.0213 373.717 47.4573 373.717 51.4767V53.6082H364.582C356.421 53.6082 352.098 57.0795 352.098 63.2913C352.098 68.955 356.726 72.3654 363.547 72.3654C368.906 72.3654 372.012 69.9903 373.961 67.1889C374.022 70.2339 375.422 72 379.563 72H382.304V67.4325H380.721ZM373.717 59.3328C373.717 64.5093 370.124 68.1024 363.912 68.1024C359.771 68.1024 357.152 66.0318 357.152 62.9868C357.152 59.4546 359.649 57.8103 364.095 57.8103H373.717V59.3328ZM401.185 72C411.477 72 416.593 67.3716 416.593 59.82C416.593 53.6691 412.512 50.7459 407.884 49.8933C412.025 48.4926 414.766 45.4476 414.766 40.6365C414.766 33.7548 409.954 29.37 400.759 29.37H386.752V72H401.185ZM392.05 34.1811H401.002C406.666 34.1811 409.467 36.7389 409.467 41.0019C409.467 45.3258 406.605 47.8836 401.002 47.8836H392.05V34.1811ZM392.05 52.6338H401.185C407.64 52.6338 411.172 55.2525 411.172 60.0636C411.172 64.4484 407.945 67.1889 401.185 67.1889H392.05V52.6338ZM438.205 40.5756C432.968 40.5756 429.618 43.0725 427.547 45.9348V29.37H422.554V72H426.878L427.547 67.2498C429.435 70.2339 432.968 72.3654 438.205 72.3654C446.792 72.3654 453.125 65.9709 453.125 56.4705C453.125 46.3611 446.792 40.5756 438.205 40.5756ZM437.718 67.9197C431.628 67.9197 427.487 63.1695 427.487 56.3487C427.487 49.7106 431.628 45.0213 437.718 45.0213C443.869 45.0213 448.01 49.7106 448.01 56.4705C448.01 63.2304 443.869 67.9197 437.718 67.9197ZM475.099 72.3654C483.808 72.3654 489.715 67.1889 491.359 58.0539H485.756C484.234 64.3875 480.641 67.4934 475.099 67.4934C466.938 67.4934 462.554 61.4643 462.554 50.685C462.554 40.0275 467.121 33.8766 475.282 33.8766C480.763 33.8766 484.356 37.0434 485.817 43.3161H491.42C489.776 34.242 483.808 29.0046 475.343 29.0046C463.772 29.0046 457.133 36.9825 457.133 50.685C457.133 64.3266 463.711 72.3654 475.099 72.3654ZM510.241 72.3654C517.792 72.3654 522.847 68.1024 524.065 61.4034H518.767C517.792 65.3619 514.747 67.9197 510.302 67.9197C504.333 67.9197 500.314 63.2913 500.314 56.5314C500.314 49.7715 504.333 45.0213 510.302 45.0213C514.869 45.0213 517.914 47.5182 518.828 51.6594H524.065C522.786 44.8386 517.975 40.5756 510.362 40.5756C501.349 40.5756 495.198 47.031 495.198 56.5314C495.198 66.2145 501.167 72.3654 510.241 72.3654ZM413.547 90.0046C404.229 90.0046 398.443 97.7389 398.443 110.711V112.659C398.443 125.631 404.229 133.365 413.547 133.365C422.864 133.365 428.65 125.631 428.65 112.659V110.711C428.65 97.7389 422.864 90.0046 413.547 90.0046ZM403.498 110.893C403.498 100.54 407.213 94.5721 413.547 94.5721C417.018 94.5721 419.698 96.3382 421.403 99.6877L404.046 118.81C403.681 116.983 403.498 114.852 403.498 112.477V110.893ZM423.595 112.477C423.595 122.83 419.88 128.737 413.547 128.737C410.136 128.737 407.457 126.971 405.691 123.743L423.047 104.499C423.412 106.387 423.595 108.518 423.595 110.893V112.477ZM449.117 90.37H444.123V95.4856C444.123 97.5562 443.148 99.1396 441.26 99.1396H432.978V103.707H441.809C442.722 103.707 443.453 103.524 444.062 103.098V128.25H432.856V133H459.896V128.25H449.117V90.37ZM490.979 133V128.311H469.481L481.783 117.47C486.716 113.147 490.674 109.066 490.674 102.733C490.674 95.0593 485.437 90.0046 476.545 90.0046C468.141 90.0046 462.66 95.7292 462.66 103.768V104.864H467.776V104.072C467.776 98.2261 471.308 94.5721 476.545 94.5721C481.904 94.5721 485.437 97.6171 485.437 102.976C485.437 107.544 482.392 110.832 478.494 114.304L462.416 128.676V133H490.979ZM515.736 110.832C519.573 109.736 522.374 106.63 522.374 101.393C522.374 94.5721 517.076 90.0046 508.55 90.0046C500.694 90.0046 494.847 94.8766 494.725 102.672H499.78C499.841 97.7998 503.678 94.5721 508.611 94.5721C513.483 94.5721 517.137 97.2517 517.137 101.576C517.137 105.899 514.213 109.005 508.184 109.005H505.017V113.573H508.732C515.066 113.573 517.928 116.374 517.928 120.82C517.928 125.692 514.213 128.798 508.915 128.798C503.13 128.798 499.232 125.448 499.171 119.846H494.116C494.116 128.311 499.658 133.365 508.611 133.365C517.624 133.365 523.166 128.432 523.166 121.185C523.166 114.669 519.451 111.563 515.736 110.832Z" fill="white"/>
<path d="M32.88 269L38.32 253.88H61.28L66.64 269H74.08L54.16 213H45.6L25.76 269H32.88ZM49.68 220.6L59.2 247.56H40.32L49.68 220.6ZM113.678 250.04C113.758 249.08 113.838 247.72 113.838 247.08C113.518 235 105.998 227.72 94.4781 227.72C82.9581 227.72 75.1181 236.2 75.1181 248.6C75.1181 261.08 83.1181 269.48 95.3581 269.48C104.798 269.48 111.518 263.48 113.118 255.32H106.478C105.118 260.6 100.638 263.64 94.8781 263.64C87.1181 263.64 82.2381 258.2 81.9981 250.44V250.04H113.678ZM94.5581 233.48C101.358 233.48 106.158 237.4 106.798 244.44H82.3981C83.0381 237.8 88.5581 233.48 94.5581 233.48ZM139.346 269.48C151.266 269.48 159.586 261 159.586 248.6C159.586 236.2 151.266 227.72 139.346 227.72C127.426 227.72 119.106 236.2 119.106 248.6C119.106 261 127.426 269.48 139.346 269.48ZM139.346 263.64C131.266 263.64 125.826 257.32 125.826 248.6C125.826 239.88 131.266 233.56 139.346 233.56C147.426 233.56 152.866 239.88 152.866 248.6C152.866 257.32 147.426 263.64 139.346 263.64ZM186.41 227.72C179.93 227.72 175.85 230.6 173.45 233.72L172.57 228.2H166.89V269H173.45V247.8C173.45 239.08 178.09 233.72 185.29 233.72C192.01 233.72 195.85 237.96 195.85 245.88V269H202.41V245.48C202.41 232.52 195.21 227.72 186.41 227.72ZM224.308 221.08C227.108 221.08 229.268 219 229.268 216.04C229.268 213.24 227.108 211.08 224.308 211.08C221.508 211.08 219.268 213.24 219.268 216.04C219.268 219 221.508 221.08 224.308 221.08ZM227.508 263V228.2H208.628V234.2H220.948V263H208.628V269H239.908V263H227.508ZM252.284 269V258.12L260.604 249.8L275.084 269H283.164L265.164 245.32L282.364 228.2H274.044L252.284 249.88V213H245.724V269H252.284ZM318.241 269V244.52H341.441V238.12H318.241V219.4H345.681V213H311.281V269H318.241ZM367.333 269.48C379.253 269.48 387.573 261 387.573 248.6C387.573 236.2 379.253 227.72 367.333 227.72C355.413 227.72 347.093 236.2 347.093 248.6C347.093 261 355.413 269.48 367.333 269.48ZM367.333 263.64C359.253 263.64 353.813 257.32 353.813 248.6C353.813 239.88 359.253 233.56 367.333 233.56C375.413 233.56 380.853 239.88 380.853 248.6C380.853 257.32 375.413 263.64 367.333 263.64ZM414.398 227.72C407.918 227.72 403.838 230.6 401.438 233.72L400.558 228.2H394.878V269H401.438V247.8C401.438 239.08 406.078 233.72 413.278 233.72C419.998 233.72 423.838 237.96 423.838 245.88V269H430.398V245.48C430.398 232.52 423.198 227.72 414.398 227.72ZM457.027 269.48C468.947 269.48 477.267 261 477.267 248.6C477.267 236.2 468.947 227.72 457.027 227.72C445.107 227.72 436.787 236.2 436.787 248.6C436.787 261 445.107 269.48 457.027 269.48ZM457.027 263.64C448.947 263.64 443.507 257.32 443.507 248.6C443.507 239.88 448.947 233.56 457.027 233.56C465.107 233.56 470.547 239.88 470.547 248.6C470.547 257.32 465.107 263.64 457.027 263.64Z" fill="white"/>
</svg>
