<svg width="560" height="316" viewBox="0 0 560 316" fill="none" xmlns="http://www.w3.org/2000/svg">
<path d="M560 0L0 0L0 316L560 316V0Z" fill="black"/>
<path d="M36.096 31.8C37.752 31.8 39.216 32.124 40.488 32.772C41.76 33.396 42.744 34.296 43.44 35.472C44.136 36.624 44.484 37.98 44.484 39.54C44.484 41.292 43.992 42.816 43.008 44.112C42.048 45.384 40.752 46.248 39.12 46.704L44.772 57H41.244L36.024 47.316H29.58V57H26.448V31.8H36.096ZM29.58 44.436H35.844C37.5 44.436 38.82 43.992 39.804 43.104C40.788 42.216 41.28 41.028 41.28 39.54C41.28 38.076 40.788 36.9 39.804 36.012C38.82 35.124 37.512 34.68 35.88 34.68H29.58V44.436ZM46.4266 47.82C46.4266 45.948 46.7866 44.304 47.5066 42.888C48.2506 41.472 49.2826 40.38 50.6026 39.612C51.9226 38.82 53.4346 38.424 55.1386 38.424C56.8186 38.424 58.3066 38.772 59.6026 39.468C60.8986 40.164 61.9186 41.172 62.6626 42.492C63.4066 43.812 63.8026 45.36 63.8506 47.136C63.8506 47.4 63.8266 47.82 63.7786 48.396H49.5226V48.648C49.5706 50.448 50.1226 51.888 51.1786 52.968C52.2346 54.048 53.6146 54.588 55.3186 54.588C56.6386 54.588 57.7546 54.264 58.6666 53.616C59.6026 52.944 60.2266 52.02 60.5386 50.844H63.5266C63.1666 52.716 62.2666 54.252 60.8266 55.452C59.3866 56.628 57.6226 57.216 55.5346 57.216C53.7106 57.216 52.1146 56.832 50.7466 56.064C49.3786 55.272 48.3106 54.168 47.5426 52.752C46.7986 51.312 46.4266 49.668 46.4266 47.82ZM60.7906 45.948C60.6466 44.388 60.0586 43.176 59.0266 42.312C58.0186 41.448 56.7346 41.016 55.1746 41.016C53.7826 41.016 52.5586 41.472 51.5026 42.384C50.4466 43.296 49.8466 44.484 49.7026 45.948H60.7906ZM84.6431 38.64V56.1C84.6431 61.644 81.6071 64.416 75.5351 64.416C73.1591 64.416 71.2151 63.876 69.7031 62.796C68.2151 61.716 67.3511 60.18 67.1111 58.188H70.1351C70.3751 59.34 70.9871 60.228 71.9711 60.852C72.9551 61.476 74.2151 61.788 75.7511 61.788C79.7111 61.788 81.6911 59.856 81.6911 55.992V53.832C80.3711 56.088 78.2711 57.216 75.3911 57.216C73.6871 57.216 72.1631 56.844 70.8191 56.1C69.4991 55.356 68.4551 54.276 67.6871 52.86C66.9431 51.444 66.5711 49.764 66.5711 47.82C66.5711 45.972 66.9431 44.34 67.6871 42.924C68.4551 41.508 69.5111 40.404 70.8551 39.612C72.1991 38.82 73.7111 38.424 75.3911 38.424C76.8791 38.424 78.1511 38.724 79.2071 39.324C80.2631 39.9 81.0911 40.728 81.6911 41.808L82.0871 38.64H84.6431ZM75.6791 54.588C76.8551 54.588 77.8991 54.312 78.8111 53.76C79.7471 53.184 80.4671 52.392 80.9711 51.384C81.4751 50.352 81.7271 49.188 81.7271 47.892C81.7271 46.572 81.4751 45.396 80.9711 44.364C80.4671 43.308 79.7471 42.492 78.8111 41.916C77.8991 41.34 76.8551 41.052 75.6791 41.052C73.8551 41.052 72.3791 41.688 71.2511 42.96C70.1471 44.208 69.5951 45.828 69.5951 47.82C69.5951 49.812 70.1471 51.444 71.2511 52.716C72.3791 53.964 73.8551 54.588 75.6791 54.588ZM104.468 38.64V57H101.912L101.516 54.552C100.124 56.328 98.1684 57.216 95.6484 57.216C93.4644 57.216 91.7124 56.544 90.3924 55.2C89.0724 53.856 88.4124 51.744 88.4124 48.864V38.64H91.3644V48.684C91.3644 50.58 91.7724 52.032 92.5884 53.04C93.4284 54.024 94.6164 54.516 96.1524 54.516C97.8324 54.516 99.1404 53.916 100.076 52.716C101.036 51.516 101.516 49.884 101.516 47.82V38.64H104.468ZM108.493 31.8H111.445V57H108.493V31.8ZM132.661 54.3V57H131.041C129.865 57 129.025 56.76 128.521 56.28C128.017 55.8 127.753 55.092 127.729 54.156C126.313 56.196 124.261 57.216 121.573 57.216C119.533 57.216 117.889 56.736 116.641 55.776C115.417 54.816 114.805 53.508 114.805 51.852C114.805 50.004 115.429 48.588 116.677 47.604C117.949 46.62 119.785 46.128 122.185 46.128H127.585V44.868C127.585 43.668 127.177 42.732 126.361 42.06C125.569 41.388 124.453 41.052 123.013 41.052C121.741 41.052 120.685 41.34 119.845 41.916C119.029 42.468 118.525 43.212 118.333 44.148H115.381C115.597 42.348 116.389 40.944 117.757 39.936C119.149 38.928 120.949 38.424 123.157 38.424C125.509 38.424 127.321 39 128.593 40.152C129.889 41.28 130.537 42.912 130.537 45.048V52.968C130.537 53.856 130.945 54.3 131.761 54.3H132.661ZM127.585 48.612H121.897C119.161 48.612 117.793 49.632 117.793 51.672C117.793 52.584 118.153 53.316 118.873 53.868C119.593 54.42 120.565 54.696 121.789 54.696C123.589 54.696 125.005 54.228 126.037 53.292C127.069 52.332 127.585 51.072 127.585 49.512V48.612ZM144.254 38.64V41.52H142.778C141.026 41.52 139.766 42.108 138.998 43.284C138.254 44.46 137.882 45.912 137.882 47.64V57H134.93V38.64H137.486L137.882 41.412C138.41 40.572 139.094 39.9 139.934 39.396C140.774 38.892 141.938 38.64 143.426 38.64H144.254ZM26.304 69.8H31.668L39.732 89.636L47.652 69.8H52.908V95H48.912V76.46L41.352 95H37.86L30.3 76.46V95H26.304V69.8ZM56.4428 85.82C56.4428 83.924 56.8148 82.268 57.5588 80.852C58.3268 79.412 59.3828 78.308 60.7268 77.54C62.0948 76.748 63.6548 76.352 65.4068 76.352C67.1828 76.352 68.7428 76.712 70.0868 77.432C71.4548 78.152 72.5228 79.172 73.2908 80.492C74.0828 81.812 74.4908 83.36 74.5148 85.136C74.5148 85.616 74.4788 86.108 74.4068 86.612H60.5107V86.828C60.6068 88.436 61.1108 89.708 62.0228 90.644C62.9348 91.58 64.1468 92.048 65.6588 92.048C66.8588 92.048 67.8668 91.772 68.6828 91.22C69.4988 90.644 70.0388 89.84 70.3028 88.808H74.1908C73.8548 90.68 72.9428 92.216 71.4548 93.416C69.9908 94.616 68.1548 95.216 65.9468 95.216C64.0268 95.216 62.3468 94.832 60.9068 94.064C59.4908 93.272 58.3868 92.168 57.5947 90.752C56.8268 89.336 56.4428 87.692 56.4428 85.82ZM70.5548 83.768C70.3868 82.424 69.8468 81.38 68.9348 80.636C68.0468 79.868 66.9188 79.484 65.5508 79.484C64.2788 79.484 63.1748 79.88 62.2388 80.672C61.3268 81.44 60.7988 82.472 60.6548 83.768H70.5548ZM95.55 69.8V95H92.166L91.698 92.228C90.234 94.22 88.23 95.216 85.686 95.216C84.006 95.216 82.506 94.844 81.186 94.1C79.866 93.332 78.834 92.24 78.09 90.824C77.346 89.384 76.974 87.704 76.974 85.784C76.974 83.912 77.346 82.268 78.09 80.852C78.858 79.412 79.902 78.308 81.222 77.54C82.542 76.748 84.03 76.352 85.686 76.352C87.03 76.352 88.206 76.604 89.214 77.108C90.222 77.588 91.038 78.26 91.662 79.124V69.8H95.55ZM86.334 91.94C87.942 91.94 89.238 91.376 90.222 90.248C91.206 89.12 91.698 87.656 91.698 85.856C91.698 84.008 91.206 82.52 90.222 81.392C89.238 80.24 87.942 79.664 86.334 79.664C84.726 79.664 83.43 80.24 82.446 81.392C81.462 82.52 80.97 83.984 80.97 85.784C80.97 87.608 81.462 89.096 82.446 90.248C83.43 91.376 84.726 91.94 86.334 91.94ZM101.293 69.188C101.965 69.188 102.529 69.416 102.985 69.872C103.441 70.304 103.669 70.856 103.669 71.528C103.669 72.2 103.441 72.764 102.985 73.22C102.529 73.652 101.965 73.868 101.293 73.868C100.621 73.868 100.057 73.652 99.6014 73.22C99.1454 72.764 98.9174 72.2 98.9174 71.528C98.9174 70.856 99.1454 70.304 99.6014 69.872C100.057 69.416 100.621 69.188 101.293 69.188ZM99.3494 76.568H103.237V95H99.3494V76.568ZM123.573 76.568V95H120.153L119.721 92.66C118.329 94.364 116.433 95.216 114.033 95.216C111.873 95.216 110.121 94.544 108.777 93.2C107.433 91.856 106.761 89.696 106.761 86.72V76.568H110.649V86.324C110.649 88.124 111.009 89.492 111.729 90.428C112.449 91.364 113.517 91.832 114.933 91.832C116.421 91.832 117.585 91.292 118.425 90.212C119.265 89.108 119.685 87.608 119.685 85.712V76.568H123.573ZM148.68 76.352C150.696 76.352 152.34 77.012 153.612 78.332C154.884 79.628 155.52 81.716 155.52 84.596V95H151.632V84.632C151.632 83.024 151.308 81.8 150.66 80.96C150.012 80.12 149.052 79.7 147.78 79.7C146.436 79.7 145.368 80.18 144.576 81.14C143.808 82.076 143.424 83.372 143.424 85.028V95H139.5V84.632C139.5 83 139.164 81.776 138.492 80.96C137.844 80.12 136.884 79.7 135.612 79.7C134.292 79.7 133.236 80.192 132.444 81.176C131.676 82.16 131.292 83.48 131.292 85.136V95H127.404V76.568H130.788L131.22 78.98C132.54 77.252 134.34 76.376 136.62 76.352C137.916 76.352 139.056 76.628 140.04 77.18C141.024 77.732 141.78 78.572 142.308 79.7C142.956 78.644 143.808 77.828 144.864 77.252C145.92 76.652 147.192 76.352 148.68 76.352ZM35.736 107.8C38.664 107.8 40.932 108.376 42.54 109.528C44.148 110.68 44.952 112.312 44.952 114.424C44.952 115.984 44.52 117.244 43.656 118.204C42.792 119.164 41.568 119.788 39.984 120.076C41.856 120.316 43.296 120.916 44.304 121.876C45.336 122.836 45.852 124.18 45.852 125.908C45.852 128.116 45.012 129.856 43.332 131.128C41.652 132.376 39.276 133 36.204 133H26.16V107.8H35.736ZM31.56 118.168H35.88C37.032 118.168 37.932 117.892 38.58 117.34C39.228 116.788 39.552 116.044 39.552 115.108C39.552 114.172 39.228 113.428 38.58 112.876C37.932 112.324 37.032 112.048 35.88 112.048H31.56V118.168ZM31.56 128.716H36.24C37.536 128.716 38.532 128.44 39.228 127.888C39.948 127.336 40.308 126.568 40.308 125.584C40.308 124.552 39.948 123.76 39.228 123.208C38.508 122.632 37.512 122.344 36.24 122.344H31.56V128.716ZM58.0734 133.216C56.1294 133.216 54.4134 132.832 52.9254 132.064C51.4614 131.272 50.3214 130.156 49.5054 128.716C48.7134 127.276 48.3174 125.62 48.3174 123.748C48.3174 121.876 48.7134 120.22 49.5054 118.78C50.3214 117.34 51.4614 116.236 52.9254 115.468C54.4134 114.676 56.1294 114.28 58.0734 114.28C60.0174 114.28 61.7214 114.676 63.1854 115.468C64.6734 116.236 65.8134 117.34 66.6054 118.78C67.4214 120.22 67.8294 121.876 67.8294 123.748C67.8294 125.644 67.4214 127.312 66.6054 128.752C65.8134 130.168 64.6734 131.272 63.1854 132.064C61.7214 132.832 60.0174 133.216 58.0734 133.216ZM58.0734 129.076C59.4894 129.076 60.6054 128.584 61.4214 127.6C62.2614 126.616 62.6814 125.332 62.6814 123.748C62.6814 122.164 62.2614 120.88 61.4214 119.896C60.6054 118.912 59.4894 118.42 58.0734 118.42C56.6814 118.42 55.5654 118.912 54.7254 119.896C53.9094 120.88 53.5014 122.164 53.5014 123.748C53.5014 125.332 53.9094 126.616 54.7254 127.6C55.5654 128.584 56.6814 129.076 58.0734 129.076ZM70.6234 107.8H75.6994V133H70.6234V107.8ZM97.7407 107.8V133H93.3127L92.8087 130.444C91.3927 132.292 89.4727 133.216 87.0487 133.216C85.4167 133.216 83.9527 132.832 82.6567 132.064C81.3607 131.272 80.3407 130.156 79.5967 128.716C78.8767 127.276 78.5167 125.608 78.5167 123.712C78.5167 121.84 78.8767 120.196 79.5967 118.78C80.3407 117.34 81.3607 116.236 82.6567 115.468C83.9767 114.676 85.4527 114.28 87.0847 114.28C89.4847 114.28 91.3447 115.12 92.6647 116.8V107.8H97.7407ZM88.2367 129.076C89.6047 129.076 90.6967 128.596 91.5127 127.636C92.3287 126.652 92.7367 125.368 92.7367 123.784C92.7367 122.176 92.3287 120.88 91.5127 119.896C90.6967 118.912 89.6047 118.42 88.2367 118.42C86.8687 118.42 85.7647 118.912 84.9247 119.896C84.1087 120.88 83.7007 122.164 83.7007 123.748C83.7007 125.332 84.1087 126.616 84.9247 127.6C85.7647 128.584 86.8687 129.076 88.2367 129.076Z" fill="white"/>
<path d="M304.181 74L320.44 31.3717H326.713L342.912 74H337.248L332.742 62.4904H314.168L309.662 74H304.181ZM315.751 57.6795H331.158L323.424 37.157L315.751 57.6795ZM375.636 69.4327V74H372.896C370.906 74 369.485 73.594 368.633 72.782C367.78 71.9701 367.334 70.7724 367.293 69.1891C364.898 72.64 361.426 74.3654 356.879 74.3654C353.429 74.3654 350.648 73.5534 348.537 71.9295C346.466 70.3056 345.431 68.0929 345.431 65.2917C345.431 62.1656 346.486 59.7703 348.597 58.1057C350.749 56.4412 353.855 55.609 357.915 55.609H367.049V53.4775C367.049 51.4476 366.359 49.8643 364.979 48.7275C363.639 47.5908 361.751 47.0224 359.315 47.0224C357.164 47.0224 355.377 47.5096 353.956 48.4839C352.576 49.4177 351.723 50.6763 351.399 52.2596H346.405C346.77 49.2147 348.11 46.8397 350.424 45.1346C352.779 43.4294 355.824 42.5769 359.559 42.5769C363.538 42.5769 366.603 43.5512 368.754 45.5C370.947 47.4081 372.043 50.1688 372.043 53.782V67.1795C372.043 68.6816 372.733 69.4327 374.113 69.4327H375.636ZM367.049 59.8109H357.428C352.799 59.8109 350.485 61.5363 350.485 64.9872C350.485 66.5299 351.094 67.7682 352.312 68.7019C353.53 69.6357 355.174 70.1026 357.245 70.1026C360.29 70.1026 362.685 69.3109 364.431 67.7276C366.176 66.1036 367.049 63.9722 367.049 61.3333V59.8109ZM395.308 31.3717C399.815 31.3717 403.286 32.3461 405.722 34.2948C408.198 36.2435 409.436 38.9433 409.436 42.3942C409.436 44.9113 408.787 47.0021 407.488 48.6666C406.189 50.2906 404.301 51.4273 401.824 52.0769C408.076 53.2542 411.202 56.6442 411.202 62.2468C411.202 65.9006 409.863 68.7831 407.183 70.8942C404.544 72.9647 400.728 74 395.734 74H380.206V31.3717H395.308ZM385.504 49.8846H395.552C398.272 49.8846 400.383 49.2756 401.885 48.0577C403.387 46.8397 404.138 45.1549 404.138 43.0032C404.138 40.8515 403.387 39.1869 401.885 38.0096C400.424 36.7916 398.312 36.1826 395.552 36.1826H385.504V49.8846ZM385.504 69.1891H395.734C398.982 69.1891 401.459 68.5598 403.164 67.3013C404.91 66.0427 405.783 64.297 405.783 62.0641C405.783 59.6688 404.91 57.8419 403.164 56.5833C401.418 55.2842 398.942 54.6346 395.734 54.6346H385.504V69.1891ZM433.067 42.5769C435.95 42.5769 438.508 43.2062 440.741 44.4647C443.014 45.7233 444.78 47.5502 446.039 49.9455C447.338 52.3408 447.987 55.1827 447.987 58.4711C447.987 61.5972 447.338 64.3579 446.039 66.7532C444.78 69.1485 443.014 71.016 440.741 72.3558C438.467 73.6955 435.909 74.3654 433.067 74.3654C430.55 74.3654 428.399 73.9188 426.612 73.0256C424.826 72.0919 423.425 70.8333 422.41 69.25L421.741 74H417.417V31.3717H422.41V47.9359C425.009 44.3632 428.561 42.5769 433.067 42.5769ZM432.58 69.9199C435.666 69.9199 438.142 68.8643 440.01 66.7532C441.918 64.6015 442.872 61.8408 442.872 58.4711C442.872 55.1015 441.918 52.3611 440.01 50.25C438.142 48.0983 435.666 47.0224 432.58 47.0224C430.591 47.0224 428.805 47.5096 427.221 48.4839C425.679 49.4177 424.481 50.7574 423.628 52.5032C422.776 54.2083 422.35 56.157 422.35 58.3493C422.35 60.5822 422.776 62.5919 423.628 64.3782C424.481 66.1239 425.679 67.484 427.221 68.4583C428.805 69.4327 430.591 69.9199 432.58 69.9199ZM452.841 52.6859C452.841 48.423 453.673 44.6474 455.338 41.3589C457.002 38.0705 459.377 35.5331 462.463 33.7467C465.548 31.9198 469.121 31.0064 473.181 31.0064C477.89 31.0064 481.828 32.2852 484.995 34.8429C488.202 37.4006 490.212 40.8921 491.024 45.3173H485.726C484.954 42.3536 483.432 40.0395 481.158 38.375C478.926 36.7104 476.185 35.8782 472.937 35.8782C470.014 35.8782 467.436 36.5886 465.203 38.0096C462.97 39.4305 461.245 41.4198 460.027 43.9775C458.85 46.4946 458.261 49.3974 458.261 52.6859C458.261 55.9337 458.85 58.8365 460.027 61.3942C461.245 63.9519 462.97 65.9412 465.203 67.3622C467.436 68.7831 470.014 69.4936 472.937 69.4936C476.226 69.4936 478.966 68.6816 481.158 67.0577C483.351 65.3932 484.853 63.0587 485.665 60.0545H490.963C490.151 64.4797 488.162 67.9711 484.995 70.5288C481.869 73.0865 477.931 74.3654 473.181 74.3654C469.121 74.3654 465.548 73.4722 462.463 71.6859C459.377 69.859 457.002 67.3216 455.338 64.0737C453.673 60.7852 452.841 56.9893 452.841 52.6859ZM524.637 63.282C523.987 66.7329 522.465 69.453 520.07 71.4423C517.674 73.391 514.629 74.3654 510.935 74.3654C507.931 74.3654 505.292 73.6955 503.018 72.3558C500.745 71.016 498.979 69.1485 497.72 66.7532C496.462 64.3173 495.832 61.5363 495.832 58.4102C495.832 55.2842 496.462 52.5235 497.72 50.1282C499.019 47.7329 500.826 45.8856 503.14 44.5865C505.454 43.2468 508.113 42.5769 511.118 42.5769C514.771 42.5769 517.776 43.5512 520.13 45.5C522.526 47.4487 524.028 50.1282 524.637 53.5384H519.582C519.095 51.5491 518.08 49.9658 516.538 48.7884C514.995 47.6111 513.127 47.0224 510.935 47.0224C507.971 47.0224 505.556 48.078 503.688 50.1891C501.861 52.3002 500.948 55.0406 500.948 58.4102C500.948 61.8205 501.861 64.6015 503.688 66.7532C505.556 68.8643 507.971 69.9199 510.935 69.9199C513.208 69.9199 515.117 69.3312 516.659 68.1538C518.202 66.9765 519.197 65.3526 519.643 63.282H524.637ZM401.109 112.712C401.109 108.692 401.779 105.12 403.119 101.994C404.499 98.8675 406.407 96.4316 408.843 94.6858C411.32 92.8995 414.141 92.0064 417.308 92.0064C420.434 92.0064 423.215 92.8995 425.651 94.6858C428.127 96.4316 430.035 98.8675 431.375 101.994C432.756 105.12 433.446 108.692 433.446 112.712V114.66C433.446 118.842 432.756 122.496 431.375 125.622C430.035 128.748 428.148 131.163 425.712 132.869C423.276 134.533 420.475 135.365 417.308 135.365C414.101 135.365 411.279 134.533 408.843 132.869C406.407 131.163 404.499 128.748 403.119 125.622C401.779 122.496 401.109 118.842 401.109 114.66V112.712ZM428.269 112.894C428.269 109.565 427.803 106.683 426.869 104.247C425.976 101.811 424.697 99.9433 423.032 98.6442C421.408 97.345 419.5 96.6955 417.308 96.6955C415.116 96.6955 413.187 97.345 411.523 98.6442C409.858 99.9433 408.559 101.811 407.625 104.247C406.732 106.683 406.285 109.565 406.285 112.894V114.478C406.285 117.807 406.732 120.689 407.625 123.125C408.559 125.561 409.858 127.428 411.523 128.728C413.187 130.027 415.116 130.676 417.308 130.676C419.5 130.676 421.408 130.027 423.032 128.728C424.697 127.428 425.976 125.561 426.869 123.125C427.803 120.689 428.269 117.807 428.269 114.478V112.894ZM451.532 92.3717V135H446.417V104.917C445.849 105.444 444.874 105.708 443.494 105.708H436.612V101.141H443.555C444.529 101.141 445.26 100.816 445.747 100.167C446.275 99.4764 446.539 98.5833 446.539 97.4871V92.3717H451.532ZM474.991 116.304C477.386 114.234 479.193 112.366 480.411 110.702C481.629 108.997 482.238 107.089 482.238 104.978C482.238 102.339 481.385 100.268 479.68 98.766C478.016 97.2638 475.763 96.5128 472.921 96.5128C470.16 96.5128 467.947 97.3653 466.283 99.0705C464.618 100.776 463.786 103.09 463.786 106.013V106.804H458.671V105.708C458.671 103.029 459.259 100.654 460.437 98.5833C461.614 96.5128 463.279 94.8888 465.43 93.7115C467.623 92.5341 470.119 91.9455 472.921 91.9455C477.468 91.9455 481.02 93.1025 483.578 95.4166C486.176 97.7307 487.475 100.836 487.475 104.734C487.475 106.764 487.069 108.611 486.257 110.276C485.486 111.94 484.471 113.463 483.212 114.843C481.954 116.183 480.31 117.725 478.28 119.471L465.491 130.311H487.78V135H458.427V130.676L474.991 116.304ZM515.149 113.016C517.666 113.503 519.797 114.64 521.543 116.426C523.289 118.172 524.162 120.425 524.162 123.186C524.162 125.581 523.512 127.713 522.213 129.58C520.954 131.407 519.148 132.828 516.793 133.843C514.438 134.858 511.718 135.365 508.633 135.365C503.923 135.365 500.168 134.168 497.367 131.772C494.565 129.337 493.165 126.028 493.165 121.846H498.402C498.443 124.607 499.417 126.799 501.325 128.423C503.274 130.006 505.811 130.798 508.937 130.798C511.82 130.798 514.195 130.067 516.062 128.606C517.97 127.144 518.924 125.216 518.924 122.82C518.924 120.547 518.011 118.761 516.184 117.462C514.357 116.162 511.779 115.513 508.45 115.513H504.796V111.067H508.146C511.272 111.067 513.667 110.377 515.331 108.997C516.996 107.616 517.828 105.81 517.828 103.577C517.828 101.425 516.976 99.72 515.271 98.4615C513.606 97.2029 511.454 96.5737 508.815 96.5737C506.055 96.5737 503.802 97.2841 502.056 98.7051C500.351 100.085 499.478 101.973 499.437 104.369H494.322C494.362 100.512 495.682 97.4871 498.28 95.2948C500.878 93.1025 504.329 92.0064 508.633 92.0064C511.556 92.0064 514.114 92.4732 516.306 93.407C518.498 94.3408 520.163 95.6602 521.299 97.3653C522.477 99.0705 523.065 101.039 523.065 103.272C523.065 105.871 522.355 108.022 520.934 109.728C519.513 111.433 517.585 112.529 515.149 113.016Z" fill="white"/>
<path d="M24.88 272L46.24 216H54.48L75.76 272H68.32L62.4 256.88H38L32.08 272H24.88ZM40.08 250.56H60.32L50.16 223.6L40.08 250.56ZM75.4994 251.6C75.4994 247.44 76.2994 243.787 77.8994 240.64C79.5527 237.493 81.846 235.067 84.7794 233.36C87.7127 231.6 91.0727 230.72 94.8594 230.72C98.5927 230.72 101.899 231.493 104.779 233.04C107.659 234.587 109.926 236.827 111.579 239.76C113.233 242.693 114.113 246.133 114.219 250.08C114.219 250.667 114.166 251.6 114.059 252.88H82.3794V253.44C82.486 257.44 83.7127 260.64 86.0594 263.04C88.406 265.44 91.4727 266.64 95.2594 266.64C98.1927 266.64 100.673 265.92 102.699 264.48C104.779 262.987 106.166 260.933 106.859 258.32H113.499C112.699 262.48 110.699 265.893 107.499 268.56C104.299 271.173 100.379 272.48 95.7394 272.48C91.686 272.48 88.1394 271.627 85.0994 269.92C82.0594 268.16 79.686 265.707 77.9794 262.56C76.326 259.36 75.4994 255.707 75.4994 251.6ZM107.419 247.44C107.099 243.973 105.793 241.28 103.499 239.36C101.259 237.44 98.406 236.48 94.9394 236.48C91.846 236.48 89.126 237.493 86.7794 239.52C84.4327 241.547 83.0994 244.187 82.7794 247.44H107.419ZM138.105 272.48C134.158 272.48 130.638 271.6 127.545 269.84C124.505 268.08 122.132 265.627 120.425 262.48C118.718 259.333 117.865 255.707 117.865 251.6C117.865 247.493 118.718 243.867 120.425 240.72C122.132 237.573 124.505 235.12 127.545 233.36C130.638 231.6 134.158 230.72 138.105 230.72C142.052 230.72 145.545 231.6 148.585 233.36C151.678 235.12 154.078 237.573 155.785 240.72C157.492 243.867 158.345 247.493 158.345 251.6C158.345 255.707 157.492 259.333 155.785 262.48C154.078 265.627 151.678 268.08 148.585 269.84C145.545 271.6 142.052 272.48 138.105 272.48ZM138.105 266.64C140.772 266.64 143.118 266 145.145 264.72C147.225 263.44 148.825 261.653 149.945 259.36C151.065 257.067 151.625 254.48 151.625 251.6C151.625 248.72 151.065 246.133 149.945 243.84C148.825 241.547 147.225 239.76 145.145 238.48C143.118 237.2 140.772 236.56 138.105 236.56C135.438 236.56 133.065 237.2 130.985 238.48C128.958 239.76 127.385 241.547 126.265 243.84C125.145 246.133 124.585 248.72 124.585 251.6C124.585 254.48 125.145 257.067 126.265 259.36C127.385 261.653 128.958 263.44 130.985 264.72C133.065 266 135.438 266.64 138.105 266.64ZM183.468 230.72C188.428 230.72 192.401 232.213 195.388 235.2C198.428 238.187 199.948 242.88 199.948 249.28V272H193.388V249.68C193.388 245.467 192.428 242.267 190.508 240.08C188.641 237.84 185.921 236.72 182.348 236.72C178.508 236.72 175.494 238.053 173.308 240.72C171.121 243.387 170.028 247.013 170.028 251.6V272H163.468V231.2H169.148L170.028 236.72C173.121 232.72 177.601 230.72 183.468 230.72ZM209.191 215.44C210.418 215.44 211.431 215.84 212.231 216.64C213.031 217.44 213.431 218.453 213.431 219.68C213.431 220.907 213.031 221.92 212.231 222.72C211.431 223.52 210.418 223.92 209.191 223.92C207.965 223.92 206.951 223.52 206.151 222.72C205.351 221.92 204.951 220.907 204.951 219.68C204.951 218.453 205.351 217.44 206.151 216.64C206.951 215.84 207.965 215.44 209.191 215.44ZM205.911 231.2H212.471V272H205.911V231.2ZM219.058 216H225.618V253.12L246.338 231.2H254.178L238.498 247.92L255.298 272H247.378L233.778 252.64L225.618 261.2V272H219.058V216Z" fill="white"/>
</svg>
