<svg width="560" height="315" viewBox="0 0 560 315" fill="none" xmlns="http://www.w3.org/2000/svg">
<path d="M560 0L0 0L0 315L560 315V0Z" fill="black"/>
<path d="M43.476 56V54.2H30.336V30.8H28.392V56H43.476ZM58.1322 33.572C59.0682 33.572 59.7882 32.852 59.7882 31.916C59.7882 30.98 59.0682 30.296 58.1322 30.296C57.1962 30.296 56.4762 30.98 56.4762 31.916C56.4762 32.852 57.1962 33.572 58.1322 33.572ZM59.0322 54.308V37.748H50.3922V39.44H57.1962V54.308H50.3922V56H65.8722V54.308H59.0322ZM86.2164 42.032C85.1004 39.296 82.6884 37.532 79.2324 37.532C74.2284 37.532 70.6284 41.312 70.6284 46.856C70.6284 52.616 74.2644 56.216 79.2324 56.216C82.6884 56.216 85.1004 54.416 86.2524 51.572V54.812C86.2524 59.672 83.9484 61.76 79.5204 61.76C76.1004 61.76 73.7244 60.212 73.1484 57.44H71.2404C71.8164 61.328 74.9484 63.416 79.3764 63.416C85.2804 63.416 88.0884 60.608 88.0884 54.884V37.748H86.4684L86.2164 42.032ZM79.4124 54.56C75.3444 54.56 72.5364 51.392 72.5364 46.856C72.5364 42.32 75.3444 39.152 79.4124 39.152C83.4444 39.152 86.2524 42.32 86.2524 46.892C86.2524 51.392 83.4444 54.56 79.4124 54.56ZM102.925 37.532C100.009 37.532 97.7047 39.008 96.4447 41.564V30.8H94.6087V56H96.4447V47C96.4447 42.248 98.8567 39.224 102.637 39.224C106.093 39.224 108.181 41.564 108.181 45.848V56H110.017V45.776C110.017 40.484 107.353 37.532 102.925 37.532ZM132.377 56V54.308H126.329C124.421 54.308 123.737 53.588 123.737 51.716V39.44H132.197V37.748H123.737V32.636H121.901V37.748H115.925V39.44H121.901V51.752C121.901 54.668 123.053 56 126.149 56H132.377ZM30.3 94V84.316H35.52L40.848 94H44.376L38.724 83.704C41.964 82.804 44.088 80.068 44.088 76.54C44.088 71.824 40.74 68.8 35.7 68.8H27.168V94H30.3ZM30.3 71.68H35.484C38.76 71.68 40.884 73.588 40.884 76.54C40.884 79.492 38.76 81.436 35.448 81.436H30.3V71.68ZM66.1242 85.468C66.1602 85.036 66.1962 84.388 66.1962 84.136C66.0522 78.7 62.6682 75.424 57.4842 75.424C52.3002 75.424 48.7722 79.24 48.7722 84.82C48.7722 90.436 52.3722 94.216 57.8802 94.216C62.1282 94.216 65.1522 91.516 65.8722 87.844H62.8842C62.2722 90.22 60.2562 91.588 57.6642 91.588C54.1722 91.588 51.9762 89.14 51.8682 85.648V85.468H66.1242ZM57.5202 78.016C60.5802 78.016 62.7402 79.78 63.0282 82.948H52.0482C52.3362 79.96 54.8202 78.016 57.5202 78.016ZM85.6404 78.808C84.4884 76.756 82.4364 75.424 79.3404 75.424C74.2644 75.424 70.5204 79.204 70.5204 84.82C70.5204 90.796 74.2644 94.216 79.3404 94.216C82.4364 94.216 84.4164 92.92 85.6404 90.832V92.992C85.6404 96.988 83.5524 98.788 79.7004 98.788C76.6404 98.788 74.5884 97.492 74.0844 95.188H71.0604C71.5284 99.22 74.8044 101.416 79.4844 101.416C85.7844 101.416 88.5924 98.392 88.5924 93.1V75.64H86.0364L85.6404 78.808ZM79.6284 91.588C75.9924 91.588 73.5444 88.816 73.5444 84.82C73.5444 80.824 75.9924 78.052 79.6284 78.052C83.2284 78.052 85.6764 80.86 85.6764 84.892C85.6764 88.816 83.2284 91.588 79.6284 91.588ZM106.957 85.324C106.957 89.032 104.941 91.516 101.773 91.516C98.8927 91.516 97.1647 89.572 97.1647 85.9V75.64H94.2127V86.08C94.2127 92.02 97.4167 94.216 101.269 94.216C104.113 94.216 105.877 92.92 106.957 91.552L107.353 94H109.909V75.64H106.957V85.324ZM126.185 91.3V68.8H116.753V71.5H123.233V91.3H116.753V94H132.665V91.3H126.185ZM154.953 91.3C154.125 91.3 153.765 91.048 153.765 90.076V82.048C153.765 77.764 151.065 75.424 146.385 75.424C141.957 75.424 139.041 77.548 138.609 81.148H141.561C141.921 79.276 143.649 78.052 146.241 78.052C149.121 78.052 150.813 79.492 150.813 81.868V83.128H145.413C140.589 83.128 138.033 85.18 138.033 88.852C138.033 92.2 140.769 94.216 144.801 94.216C147.969 94.216 149.805 92.812 150.957 91.156C150.993 92.956 151.821 94 154.269 94H155.889V91.3H154.953ZM150.813 86.512C150.813 89.572 148.689 91.696 145.017 91.696C142.569 91.696 141.021 90.472 141.021 88.672C141.021 86.584 142.497 85.612 145.125 85.612H150.813V86.512ZM177.673 78.52V75.64H174.613C171.013 75.64 169.285 77.404 168.457 78.808V75.64H161.041V78.34H165.577V91.3H161.041V94H176.665V91.3H168.529V84.748C168.529 81.832 169.861 78.52 174.289 78.52H177.673ZM35.556 132C41.244 132 44.412 129.3 44.412 124.836C44.412 121.38 42.432 119.472 39.228 119.04C42 118.392 43.584 116.52 43.584 113.46C43.584 109.284 40.596 106.8 35.16 106.8H26.628V132H35.556ZM31.812 110.94H35.16C37.284 110.94 38.4 112.128 38.4 114.072C38.4 116.016 37.248 117.24 35.16 117.24H31.812V110.94ZM31.812 121.308H35.484C37.824 121.308 39.12 122.496 39.12 124.62C39.12 126.636 37.86 127.86 35.484 127.86H31.812V121.308ZM57.4842 132.216C63.1362 132.216 66.9162 128.436 66.9162 122.748C66.9162 117.06 63.1362 113.28 57.4842 113.28C51.8322 113.28 48.0522 117.06 48.0522 122.748C48.0522 128.436 51.8322 132.216 57.4842 132.216ZM57.4842 128.076C54.8922 128.076 53.2362 125.844 53.2362 122.748C53.2362 119.652 54.8922 117.42 57.4842 117.42C60.0762 117.42 61.7322 119.616 61.7322 122.748C61.7322 125.88 60.0762 128.076 57.4842 128.076ZM82.4364 127.716V106.8H71.4924V111.084H77.3604V127.716H71.4924V132H88.3044V127.716H82.4364ZM106.129 115.476C104.977 114.18 103.249 113.28 100.945 113.28C96.1567 113.28 92.3767 116.988 92.3767 122.712C92.3767 128.58 95.9047 132.216 100.765 132.216C103.321 132.216 105.085 131.028 106.237 129.444L106.741 132H111.205V106.8H106.129V115.476ZM101.881 128.076C99.2167 128.076 97.5607 125.88 97.5607 122.748C97.5607 119.616 99.2167 117.42 101.881 117.42C104.509 117.42 106.165 119.616 106.165 122.784C106.165 125.916 104.509 128.076 101.881 128.076Z" fill="white"/>
<path d="M307.108 71L310.945 59.4899H327.449L331.285 71H336.888L322.577 28.37H316L301.688 71H307.108ZM319.166 34.1555L325.926 54.6788H312.467L319.166 34.1555ZM370.878 66.4325C369.477 66.4325 368.868 66.0062 368.868 64.3619V50.7812C368.868 43.5341 364.3 39.5756 356.383 39.5756C348.893 39.5756 343.96 43.1687 343.229 49.2587H348.223C348.832 46.0919 351.755 44.0213 356.14 44.0213C361.012 44.0213 363.874 46.4573 363.874 50.4767V52.6082H354.739C346.579 52.6082 342.255 56.0795 342.255 62.2913C342.255 67.955 346.883 71.3654 353.704 71.3654C359.063 71.3654 362.169 68.9903 364.118 66.1889C364.179 69.2339 365.579 71 369.721 71H372.461V66.4325H370.878ZM363.874 58.3328C363.874 63.5093 360.281 67.1024 354.069 67.1024C349.928 67.1024 347.309 65.0318 347.309 61.9868C347.309 58.4546 349.806 56.8103 354.252 56.8103H363.874V58.3328ZM395.001 71C405.111 71 409.983 66.3716 409.983 58.82C409.983 52.6691 406.024 49.7459 401.517 48.8933C405.537 47.4926 408.216 44.5085 408.216 39.6365C408.216 32.7548 403.649 28.37 394.575 28.37H381.299V71H395.001ZM386.597 33.1811H394.818C400.36 33.1811 402.918 35.7389 402.918 40.0019C402.918 44.3258 400.299 46.8836 394.818 46.8836H386.597V33.1811ZM386.597 51.6338H395.001C401.335 51.6338 404.562 54.2525 404.562 59.0636C404.562 63.4484 401.578 66.1889 395.001 66.1889H386.597V51.6338ZM433.375 39.5756C428.138 39.5756 424.788 42.0725 422.718 44.9348V28.37H417.724V71H422.048L422.718 66.2498C424.606 69.2339 428.138 71.3654 433.375 71.3654C441.962 71.3654 448.296 64.9709 448.296 55.4705C448.296 45.3611 441.962 39.5756 433.375 39.5756ZM432.888 66.9197C426.798 66.9197 422.657 62.1695 422.657 55.3487C422.657 48.7106 426.798 44.0213 432.888 44.0213C439.039 44.0213 443.18 48.7106 443.18 55.4705C443.18 62.2304 439.039 66.9197 432.888 66.9197ZM471.384 71.3654C479.606 71.3654 484.965 66.3107 486.609 57.0539H481.006C479.545 63.5093 476.5 66.4934 471.384 66.4934C463.832 66.4934 459.935 60.7688 459.935 49.685C459.935 38.7839 464.015 32.8766 471.567 32.8766C476.561 32.8766 479.666 35.9216 481.067 42.3161H486.67C485.026 33.1202 479.606 28.0046 471.567 28.0046C460.605 28.0046 454.515 35.7389 454.515 49.685C454.515 63.5702 460.605 71.3654 471.384 71.3654ZM508.906 71.3654C516.457 71.3654 521.512 67.1024 522.73 60.4034H517.432C516.457 64.3619 513.412 66.9197 508.966 66.9197C502.998 66.9197 498.979 62.2913 498.979 55.5314C498.979 48.7715 502.998 44.0213 508.966 44.0213C513.534 44.0213 516.579 46.5182 517.492 50.6594H522.73C521.451 43.8386 516.64 39.5756 509.027 39.5756C500.014 39.5756 493.863 46.031 493.863 55.5314C493.863 65.2145 499.831 71.3654 508.906 71.3654ZM394.818 89.0046C385.501 89.0046 379.715 96.7389 379.715 109.711V111.659C379.715 124.631 385.501 132.365 394.818 132.365C404.136 132.365 409.922 124.631 409.922 111.659V109.711C409.922 96.7389 404.136 89.0046 394.818 89.0046ZM384.77 109.893C384.77 99.5403 388.485 93.5721 394.818 93.5721C398.29 93.5721 400.969 95.3382 402.675 98.6877L385.318 117.81C384.953 115.983 384.77 113.852 384.77 111.477V109.893ZM404.867 111.477C404.867 121.83 401.152 127.737 394.818 127.737C391.408 127.737 388.728 125.971 386.962 122.743L404.319 103.499C404.684 105.387 404.867 107.518 404.867 109.893V111.477ZM436.116 89.37H431.122V94.4856C431.122 96.5562 430.148 98.1396 428.26 98.1396H419.977V102.707H428.808C429.721 102.707 430.452 102.524 431.061 102.098V127.25H419.855V132H446.895V127.25H436.116V89.37ZM484.478 132V127.311H462.98L475.282 116.47C480.215 112.147 484.173 108.066 484.173 101.733C484.173 94.0593 478.936 89.0046 470.044 89.0046C461.64 89.0046 456.159 94.7292 456.159 102.768V103.864H461.275V103.072C461.275 97.2261 464.807 93.5721 470.044 93.5721C475.403 93.5721 478.936 96.6171 478.936 101.976C478.936 106.544 475.891 109.832 471.993 113.304L455.915 127.676V132H484.478ZM515.117 109.832C518.954 108.736 521.755 105.63 521.755 100.393C521.755 93.5721 516.457 89.0046 507.931 89.0046C500.075 89.0046 494.229 93.8766 494.107 101.672H499.162C499.222 96.7998 503.059 93.5721 507.992 93.5721C512.864 93.5721 516.518 96.2517 516.518 100.576C516.518 104.899 513.595 108.005 507.566 108.005H504.399V112.573H508.114C514.447 112.573 517.31 115.374 517.31 119.82C517.31 124.692 513.595 127.798 508.297 127.798C502.511 127.798 498.613 124.448 498.553 118.846H493.498C493.498 127.311 499.04 132.365 507.992 132.365C517.005 132.365 522.547 127.432 522.547 120.185C522.547 113.669 518.832 110.563 515.117 109.832Z" fill="white"/>
<path d="M32.8 279L37.84 263.88H59.52L64.56 279H71.92L53.12 223H44.48L25.68 279H32.8ZM48.64 230.6L57.52 257.56H39.84L48.64 230.6ZM114.409 260.04C114.489 259.08 114.569 257.64 114.569 257.08C114.249 245 106.729 237.72 95.2094 237.72C83.6894 237.72 75.8494 246.2 75.8494 258.6C75.8494 271.08 83.8494 279.48 96.0894 279.48C105.529 279.48 112.249 273.48 113.849 265.32H107.209C105.849 270.6 101.369 273.64 95.6094 273.64C87.8494 273.64 82.9694 268.2 82.7294 260.44V260.04H114.409ZM95.2894 243.48C102.089 243.48 106.889 247.4 107.529 254.44H83.1294C83.7694 247.8 89.2894 243.48 95.2894 243.48ZM141.619 279.48C153.539 279.48 161.859 271 161.859 258.6C161.859 246.2 153.539 237.72 141.619 237.72C129.699 237.72 121.379 246.2 121.379 258.6C121.379 271 129.699 279.48 141.619 279.48ZM141.619 273.64C133.539 273.64 128.099 267.32 128.099 258.6C128.099 249.88 133.539 243.56 141.619 243.56C149.699 243.56 155.139 249.88 155.139 258.6C155.139 267.32 149.699 273.64 141.619 273.64ZM189.948 237.72C183.548 237.72 179.548 240.6 177.148 243.72L176.268 238.2H170.588V279H177.148V257.32C177.148 249.24 181.708 243.72 188.828 243.72C195.388 243.72 199.228 248.04 199.228 256.2V279H205.788V255.8C205.788 242.6 198.588 237.72 189.948 237.72ZM235.877 231C238.837 231 241.157 228.76 241.157 225.72C241.157 222.76 238.837 220.52 235.877 220.52C232.917 220.52 230.597 222.76 230.597 225.72C230.597 228.76 232.917 231 235.877 231ZM239.077 273V238.2H218.117V244.2H232.517V273H218.117V279H253.477V273H239.077ZM271.087 279V268.04L279.487 259.8L294.287 279H302.367L284.047 255.4L301.647 238.2H293.247L271.087 259.88V223H264.527V279H271.087ZM359.906 279V234.36L370.706 258.28H376.706L387.426 234.36V279H393.826V223H385.906L373.746 250.28L361.666 223H353.506V279H359.906ZM420.075 279.48C431.995 279.48 440.315 271 440.315 258.6C440.315 246.2 431.995 237.72 420.075 237.72C408.155 237.72 399.835 246.2 399.835 258.6C399.835 271 408.155 279.48 420.075 279.48ZM420.075 273.64C411.995 273.64 406.555 267.32 406.555 258.6C406.555 249.88 411.995 243.56 420.075 243.56C428.155 243.56 433.595 249.88 433.595 258.6C433.595 267.32 428.155 273.64 420.075 273.64ZM468.404 237.72C462.004 237.72 458.004 240.6 455.604 243.72L454.724 238.2H449.044V279H455.604V257.32C455.604 249.24 460.164 243.72 467.284 243.72C473.844 243.72 477.684 248.04 477.684 256.2V279H484.244V255.8C484.244 242.6 477.044 237.72 468.404 237.72ZM512.894 279.48C524.814 279.48 533.134 271 533.134 258.6C533.134 246.2 524.814 237.72 512.894 237.72C500.974 237.72 492.654 246.2 492.654 258.6C492.654 271 500.974 279.48 512.894 279.48ZM512.894 273.64C504.814 273.64 499.374 267.32 499.374 258.6C499.374 249.88 504.814 243.56 512.894 243.56C520.974 243.56 526.414 249.88 526.414 258.6C526.414 267.32 520.974 273.64 512.894 273.64Z" fill="white"/>
</svg>
